*
*
G04 PADS VX.2.7 Build Number: 15549477 generated Gerber (RS-274-X) file*
G04 PC Version=2.1*
*
%IN "IC-Shelter PCB.pcb"*%
*
%MOIN*%
*
%FSLAX35Y35*%
*
*
*
*
G04 PC Standard Apertures*
*
*
G04 Thermal Relief Aperture macro.*
%AMTER*
1,1,$1,0,0*
1,0,$1-$2,0,0*
21,0,$3,$4,0,0,45*
21,0,$3,$4,0,0,135*
%
*
*
G04 Annular Aperture macro.*
%AMANN*
1,1,$1,0,0*
1,0,$2,0,0*
%
*
*
G04 Odd Aperture macro.*
%AMODD*
1,1,$1,0,0*
1,0,$1-0.005,0,0*
%
*
*
G04 PC Custom Aperture Macros*
*
*
*
*
*
*
G04 PC Aperture Table*
*
%ADD010C,0.001*%
%ADD020C,0.07*%
%ADD064R,0.07X0.07*%
%ADD065C,0.12811*%
%ADD066R,0.075X0.075*%
%ADD067C,0.075*%
%ADD069C,0.08874*%
%ADD070C,0.08*%
%ADD074C,0.078*%
%ADD075R,0.06906X0.06906*%
%ADD076C,0.06906*%
%ADD079C,0.08087*%
%ADD081C,0.06118*%
*
*
*
*
G04 PC Circuitry*
G04 Layer Name IC-Shelter PCB.pcb - circuitry*
%LPD*%
*
*
G04 PC Custom Flashes*
G04 Layer Name IC-Shelter PCB.pcb - flashes*
%LPD*%
*
*
G04 PC Circuitry*
G04 Layer Name IC-Shelter PCB.pcb - circuitry*
%LPD*%
*
G54D10*
G01X496378Y285689D02*
X503071D01*
Y427087*
X100000*
Y285689*
X106693*
Y241398*
X100000*
Y100000*
X503071*
Y241398*
X496378*
Y285689*
G54D20*
X465593Y316988D03*
Y306988D03*
Y296988D03*
X495593D03*
Y306988D03*
Y316988D03*
Y326988D03*
X459265Y262248D03*
Y252248D03*
Y242248D03*
Y232248D03*
Y222248D03*
Y212248D03*
Y202248D03*
X489265D03*
Y212248D03*
Y222248D03*
Y232248D03*
Y242248D03*
Y252248D03*
Y262248D03*
Y272248D03*
X107735Y163209D03*
X113641Y137618D03*
X476740Y165339D03*
Y155339D03*
Y145339D03*
Y135339D03*
G54D64*
X465593Y326988D03*
X459265Y272248D03*
G54D65*
X144843Y416299D03*
X164528D03*
X136713Y109542D03*
X117028D03*
X199843Y416299D03*
X219528D03*
X213641Y109898D03*
X193956D03*
X174271D03*
X288850Y410943D03*
X308535D03*
X328220D03*
X347905D03*
X367590D03*
X387275D03*
X406960D03*
X426645D03*
X455228Y118689D03*
X435543D03*
X415858D03*
X396173D03*
X376488D03*
X356803D03*
X337118D03*
X317433D03*
X202583Y201164D03*
X112583D03*
G54D66*
X201133Y299842D03*
G54D67*
Y309842D03*
Y319842D03*
G54D69*
X138553Y238783D03*
X158238D03*
X118080Y354531D03*
X178710D03*
X297661Y370883D03*
Y390883D03*
X326557Y370517D03*
Y390517D03*
X355086Y370883D03*
Y390883D03*
X383250Y370883D03*
Y390883D03*
X410682Y371249D03*
Y391249D03*
G54D70*
X222291Y158104D03*
Y168104D03*
Y178104D03*
Y188104D03*
Y198104D03*
X282291Y158104D03*
Y188104D03*
Y178104D03*
Y168104D03*
G54D74*
X212866Y250558D03*
Y275558D03*
X194866D03*
Y250558D03*
G54D75*
X253142Y117670D03*
X275440Y237136D03*
G54D76*
X253142Y127670D03*
X263142Y117670D03*
Y127670D03*
X273142Y117670D03*
Y127670D03*
X265440Y237136D03*
X275440Y247136D03*
X265440D03*
X275440Y257136D03*
X265440D03*
G54D79*
X297661Y320883D03*
Y330883D03*
X326557Y320517D03*
Y330517D03*
X355086Y320883D03*
Y330883D03*
X383250Y320883D03*
Y330883D03*
X410682Y321249D03*
Y331249D03*
G54D81*
X178079Y374719D03*
X238018Y285760D03*
X343181Y286675D03*
X0Y0D02*
M02*
