*
*
G04 PADS VX.2.7 Build Number: 15549477 generated Gerber (RS-274-X) file*
G04 PC Version=2.1*
*
%IN "IC-Shelter PCB.pcb"*%
*
%MOIN*%
*
%FSLAX35Y35*%
*
*
*
*
G04 PC Standard Apertures*
*
*
G04 Thermal Relief Aperture macro.*
%AMTER*
1,1,$1,0,0*
1,0,$1-$2,0,0*
21,0,$3,$4,0,0,45*
21,0,$3,$4,0,0,135*
%
*
*
G04 Annular Aperture macro.*
%AMANN*
1,1,$1,0,0*
1,0,$2,0,0*
%
*
*
G04 Odd Aperture macro.*
%AMODD*
1,1,$1,0,0*
1,0,$1-0.005,0,0*
%
*
*
G04 PC Custom Aperture Macros*
*
*
*
*
*
*
G04 PC Aperture Table*
*
%ADD010C,0.001*%
%ADD052C,0.00787*%
%ADD053C,0.01969*%
%ADD054C,0.00984*%
%ADD055C,0.01*%
%ADD056C,0.008*%
%ADD057C,0.00492*%
%ADD058C,0.00787*%
%ADD059C,0.00512*%
%ADD060C,0.00591*%
%ADD061C,0.005*%
%ADD062C,0.0015*%
%ADD063C,0.00394*%
*
*
*
*
G04 PC Circuitry*
G04 Layer Name IC-Shelter PCB.pcb - circuitry*
%LPD*%
*
*
G04 PC Custom Flashes*
G04 Layer Name IC-Shelter PCB.pcb - flashes*
%LPD*%
*
*
G04 PC Circuitry*
G04 Layer Name IC-Shelter PCB.pcb - circuitry*
%LPD*%
*
G54D10*
G01X496378Y285689D02*
X503071D01*
Y427087*
X100000*
Y285689*
X106693*
Y241398*
X100000*
Y100000*
X503071*
Y241398*
X496378*
Y285689*
G54D52*
X442689Y370285D02*
X430287D01*
Y331309*
X442689*
Y370285*
X449851Y286678D02*
Y291009D01*
X450908Y307177D02*
Y311508D01*
X450210Y297858D02*
Y302189D01*
X451508Y317343D02*
Y321673D01*
X445398Y262572D02*
Y266903D01*
X444361Y272613D02*
Y276944D01*
Y251879D02*
Y256210D01*
Y242327D02*
Y246658D01*
Y201557D02*
Y205888D01*
X443895Y231843D02*
Y236174D01*
Y221127D02*
Y225457D01*
Y211808D02*
Y216139D01*
X428033Y225341D02*
Y221010D01*
Y201172D02*
Y205502D01*
X427903Y242466D02*
Y246797D01*
Y232022D02*
Y236352D01*
X427644Y210896D02*
Y215227D01*
X427120Y262050D02*
Y266381D01*
X426600Y272136D02*
Y276467D01*
X428425Y251606D02*
Y255936D01*
X436229Y190219D02*
Y194550D01*
X157579Y381064D02*
Y385395D01*
X167925Y399481D02*
X163201D01*
X167925Y393182D02*
X163201D01*
X167925Y399481D02*
Y393182D01*
X167138Y399481D02*
Y393182D01*
X166350Y399481D02*
Y393182D01*
X183000Y374719D02*
G75*
G03X183000I-4921J0D01*
G01X198538Y390305D02*
Y395816D01*
X192239Y390305D02*
Y395816D01*
X212116Y391349D02*
Y396861D01*
X205817Y391349D02*
Y396861D01*
X236155Y386778D02*
X223557D01*
Y367487*
X236155*
Y386778*
X230868Y188680D02*
Y183168D01*
X237167Y188680D02*
Y183168D01*
X242940Y285760D02*
G03X242940I-4922J0D01*
G01X242060Y224062D02*
Y228392D01*
X242452Y234657D02*
Y238987D01*
X241556Y204567D02*
Y200236D01*
X242627Y254609D02*
Y258939D01*
X242390Y243930D02*
Y248261D01*
X242335Y266103D02*
Y270434D01*
X246230Y188314D02*
Y182803D01*
X252529Y188314D02*
Y182803D01*
X250265Y336540D02*
Y340871D01*
Y351710D02*
Y356041D01*
X254679Y374376D02*
Y379888D01*
X248379Y374376D02*
Y379888D01*
X249295Y393891D02*
X254020D01*
X249295Y400190D02*
X254020D01*
X249295Y393891D02*
Y400190D01*
X250083Y393891D02*
Y400190D01*
X250870Y393891D02*
Y400190D01*
X248360Y405211D02*
X253084D01*
X248360Y411510D02*
X253084D01*
X248360Y405211D02*
Y411510D01*
X249147Y405211D02*
Y411510D01*
X249934Y405211D02*
Y411510D01*
X248692Y417851D02*
X253417D01*
X248692Y424150D02*
X253417D01*
X248692Y417851D02*
Y424150D01*
X249480Y417851D02*
Y424150D01*
X250267Y417851D02*
Y424150D01*
X267457Y326921D02*
Y331252D01*
Y371834D02*
Y376164D01*
X267718Y348855D02*
Y353186D01*
Y360083D02*
Y364414D01*
X267416Y387588D02*
Y383258D01*
X267979Y342219D02*
Y337888D01*
X294469Y308674D02*
X289745D01*
X294469Y302375D02*
X289745D01*
X294469Y308674D02*
Y302375D01*
X293682Y308674D02*
Y302375D01*
X292894Y308674D02*
Y302375D01*
X298461Y168430D02*
Y173155D01*
X292162Y168430D02*
Y173155D01*
X298461Y168430D02*
X292162D01*
X298461Y169218D02*
X292162D01*
X298461Y170005D02*
X292162D01*
X292576Y201807D02*
X296907D01*
X303502Y189717D02*
X299171D01*
X307964Y139039D02*
X303633D01*
X322079Y306949D02*
X317355D01*
X322079Y300649D02*
X317355D01*
X322079Y306949D02*
Y300649D01*
X321292Y306949D02*
Y300649D01*
X320504Y306949D02*
Y300649D01*
X331014Y147349D02*
Y163688D01*
X315660*
Y147349*
X331014*
X315660Y148137D02*
X316447Y147349D01*
X315660Y148924D02*
X317235Y147349D01*
X315660Y149711D02*
X318022Y147349D01*
X315660Y150499D02*
X318809Y147349D01*
X315660Y151286D02*
X319597Y147349D01*
X344532Y224166D02*
X307918D01*
Y260780*
X344532*
Y224166*
X321886Y176902D02*
X326610D01*
X321886Y183201D02*
X326610D01*
X321886Y176902D02*
Y183201D01*
X322673Y176902D02*
Y183201D01*
X323461Y176902D02*
Y183201D01*
X339544Y146261D02*
X335214D01*
X348102Y286675D02*
G03X348102I-4921J0D01*
G01X351025Y308455D02*
X346300D01*
X351025Y302155D02*
X346300D01*
X351025Y308455D02*
Y302155D01*
X350237Y308455D02*
Y302155D01*
X349450Y308455D02*
Y302155D01*
X351520Y139554D02*
X347189D01*
X362977Y208939D02*
X358646D01*
X372345Y147349D02*
Y163688D01*
X356991*
Y147349*
X372345*
X356991Y148137D02*
X357779Y147349D01*
X356991Y148924D02*
X358566Y147349D01*
X356991Y149711D02*
X359353Y147349D01*
X356991Y150499D02*
X360141Y147349D01*
X356991Y151286D02*
X360928Y147349D01*
X362881Y176641D02*
X367606D01*
X362881Y182940D02*
X367606D01*
X362881Y176641D02*
Y182940D01*
X363669Y176641D02*
Y182940D01*
X364456Y176641D02*
Y182940D01*
X378327Y308455D02*
X373603D01*
X378327Y302155D02*
X373603D01*
X378327Y308455D02*
Y302155D01*
X377540Y308455D02*
Y302155D01*
X376753Y308455D02*
Y302155D01*
X380086Y145048D02*
X375755D01*
X391976Y139261D02*
X387645D01*
X412214Y147349D02*
Y163688D01*
X396859*
Y147349*
X412214*
X396859Y148137D02*
X397647Y147349D01*
X396859Y148924D02*
X398434Y147349D01*
X396859Y149711D02*
X399222Y147349D01*
X396859Y150499D02*
X400009Y147349D01*
X396859Y151286D02*
X400796Y147349D01*
X495512Y112825D02*
X499843D01*
X483300Y113881D02*
Y109157D01*
X489599Y113881D02*
Y109157D01*
X483300Y113881D02*
X489599D01*
X483300Y113094D02*
X489599D01*
X483300Y112306D02*
X489599D01*
X475178Y191117D02*
Y191905D01*
X494863*
Y191117*
X475178Y182062D02*
Y181275D01*
X494863*
Y182062*
X458451Y144788D02*
X454121D01*
X448491Y148232D02*
Y164571D01*
X433137*
Y148232*
X448491*
X433137Y149019D02*
X433924Y148232D01*
X433137Y149807D02*
X434712Y148232D01*
X433137Y150594D02*
X435499Y148232D01*
X433137Y151382D02*
X436286Y148232D01*
X433137Y152169D02*
X437074Y148232D01*
X429794Y140140D02*
X425463D01*
X432885Y184507D02*
X428161D01*
X432885Y178208D02*
X428161D01*
X432885Y184507D02*
Y178208D01*
X432098Y184507D02*
Y178208D01*
X431310Y184507D02*
Y178208D01*
X419855Y145700D02*
X415525D01*
X402357Y177304D02*
X407082D01*
X402357Y183604D02*
X407082D01*
X402357Y177304D02*
Y183604D01*
X403145Y177304D02*
Y183604D01*
X403932Y177304D02*
Y183604D01*
X404230Y307930D02*
X399506D01*
X404230Y301630D02*
X399506D01*
X404230Y307930D02*
Y301630D01*
X403443Y307930D02*
Y301630D01*
X402655Y307930D02*
Y301630D01*
G54D53*
X439736Y335246D02*
G03X439736I-984J0D01*
G01X233203Y371424D02*
G03X233203I-985J0D01*
G01X312446Y227709D02*
G03X312446I-985J0D01*
G54D54*
G01X449775Y330127D02*
G03X449775I-492J0D01*
G01X176094Y396331D02*
G03X176094I-492J0D01*
G01X242947Y366306D02*
G03X242947I-492J0D01*
G01X242110Y397040D02*
G03X242110I-492J0D01*
G01X241175Y408360D02*
G03X241175I-493J0D01*
G01X241507Y421000D02*
G03X241507I-492J0D01*
G01X302639Y305525D02*
G03X302639I-493J0D01*
G01X295803Y160753D02*
G03X295803I-492J0D01*
G01X330248Y303799D02*
G03X330248I-492J0D01*
G01X315561Y139967D02*
G03X315561I-492J0D01*
G01X307820Y217079D02*
G03X307820I-493J0D01*
G01X314701Y180052D02*
G03X314701I-492J0D01*
G01X359194Y305305D02*
G03X359194I-492J0D01*
G01X356893Y139967D02*
G03X356893I-492J0D01*
G01X355696Y179791D02*
G03X355696I-492J0D01*
G01X386497Y305305D02*
G03X386497I-492J0D01*
G01X396761Y139967D02*
G03X396761I-492J0D01*
G01X486941Y121558D02*
G03X486941I-492J0D01*
G01X471142Y186590D02*
G03X471142I-492J0D01*
G01X433038Y140850D02*
G03X433038I-492J0D01*
G01X441054Y181357D02*
G03X441054I-492J0D01*
G01X395172Y180454D02*
G03X395172I-492J0D01*
G01X412400Y304780D02*
G03X412400I-493J0D01*
G54D55*
G01X460593Y331988D02*
X500593D01*
Y291988*
X460593*
Y331988*
X484968Y325738D02*
Y328238D01*
X484343*
Y325738*
X483718*
Y328238*
X485593Y325738D02*
Y328238D01*
X483093*
Y325738*
X485593*
X484968Y315738D02*
Y318238D01*
X484343*
Y315738*
X483718*
Y318238*
X485593Y315738D02*
Y318238D01*
X483093*
Y315738*
X485593*
X484968Y308238D02*
Y305738D01*
X484343*
Y308238*
X483718*
Y305738*
X485593D02*
Y308238D01*
X483093*
Y305738*
X485593*
X484968Y298238D02*
Y295738D01*
X484343*
Y298238*
X483718*
Y295738*
X485593D02*
Y298238D01*
X483093*
Y295738*
X485593*
X480593Y324488D02*
Y329488D01*
Y314488D02*
Y319488D01*
Y304488D02*
Y309488D01*
Y294488D02*
Y299488D01*
X488093Y324488D02*
Y329488D01*
X473093*
Y324488*
X488093*
Y314488D02*
Y319488D01*
X473093*
Y314488*
X488093*
Y304488D02*
Y309488D01*
X473093*
Y304488*
X488093*
Y294488D02*
Y299488D01*
X473093*
Y294488*
X488093*
X454265Y277248D02*
X494265D01*
Y197248*
X454265*
Y277248*
X478640Y270998D02*
Y273498D01*
X478015*
Y270998*
X477390*
Y273498*
X479265Y270998D02*
Y273498D01*
X476765*
Y270998*
X479265*
X478640Y260998D02*
Y263498D01*
X478015*
Y260998*
X477390*
Y263498*
X479265Y260998D02*
Y263498D01*
X476765*
Y260998*
X479265*
X478640Y253498D02*
Y250998D01*
X478015*
Y253498*
X477390*
Y250998*
X479265D02*
Y253498D01*
X476765*
Y250998*
X479265*
X478640Y243498D02*
Y240998D01*
X478015*
Y243498*
X477390*
Y240998*
X479265D02*
Y243498D01*
X476765*
Y240998*
X479265*
X478640Y230998D02*
Y233498D01*
X478015*
Y230998*
X477390*
Y233498*
X479265Y230998D02*
Y233498D01*
X476765*
Y230998*
X479265*
X478640Y220998D02*
Y223498D01*
X478015*
Y220998*
X477390*
Y223498*
X479265Y220998D02*
Y223498D01*
X476765*
Y220998*
X479265*
X478640Y210998D02*
Y213498D01*
X478015*
Y210998*
X477390*
Y213498*
X479265Y210998D02*
Y213498D01*
X476765*
Y210998*
X479265*
X478640Y200998D02*
Y203498D01*
X478015*
Y200998*
X477390*
Y203498*
X479265Y200998D02*
Y203498D01*
X476765*
Y200998*
X479265*
X474265Y269748D02*
Y274748D01*
Y259748D02*
Y264748D01*
Y249748D02*
Y254748D01*
Y239748D02*
Y244748D01*
Y229748D02*
Y234748D01*
Y219748D02*
Y224748D01*
Y209748D02*
Y214748D01*
Y199748D02*
Y204748D01*
X481765Y269748D02*
Y274748D01*
X466765*
Y269748*
X481765*
Y259748D02*
Y264748D01*
X466765*
Y259748*
X481765*
Y249748D02*
Y254748D01*
X466765*
Y249748*
X481765*
Y239748D02*
Y244748D01*
X466765*
Y239748*
X481765*
Y229748D02*
Y234748D01*
X466765*
Y229748*
X481765*
Y219748D02*
Y224748D01*
X466765*
Y219748*
X481765*
Y209748D02*
Y214748D01*
X466765*
Y209748*
X481765*
Y199748D02*
Y204748D01*
X466765*
Y199748*
X481765*
X193133Y347632D02*
Y336132D01*
X209133*
Y347632*
X193133Y359632D02*
Y368632D01*
X195633Y371132*
X206633*
X209133Y368632*
Y359632*
X254897Y309894D02*
Y301894D01*
X263897*
Y309894*
X254897Y312894D02*
Y320894D01*
X263897*
Y312894*
X258989Y188073D02*
Y176573D01*
X274989*
Y188073*
X258989Y200073D02*
Y209073D01*
X261489Y211573*
X272489*
X274989Y209073*
Y200073*
X240865Y167363D02*
Y175363D01*
X229365*
Y167363*
X240865Y159863D02*
Y151863D01*
X229365*
Y159863*
X256593Y166997D02*
Y174997D01*
X245093*
Y166997*
X256593Y159497D02*
Y151497D01*
X245093*
Y159497*
X336737Y162666D02*
Y154666D01*
X345737*
Y162666*
X336737Y165666D02*
Y173666D01*
X345737*
Y165666*
X377395Y160921D02*
Y152921D01*
X386395*
Y160921*
X377395Y163921D02*
Y171921D01*
X386395*
Y163921*
X104250Y406250D02*
Y398250D01*
X115750*
Y406250*
X104250Y413750D02*
Y421750D01*
X115750*
Y413750*
X119250Y406250D02*
Y398250D01*
X130750*
Y406250*
X119250Y413750D02*
Y421750D01*
X130750*
Y413750*
X211441Y222818D02*
Y179511D01*
X103725Y179510*
Y222818*
X211441*
X190866Y279558D02*
Y246558D01*
X216866*
Y279558*
X190866*
X465730Y163236D02*
Y171236D01*
X456730*
Y163236*
X465730Y160236D02*
Y152236D01*
X456730*
Y160236*
X415506Y162386D02*
Y154386D01*
X424506*
Y162386*
X415506Y165386D02*
Y173386D01*
X424506*
Y165386*
X480658Y361969D02*
G03X480658I-11800J0D01*
G01X146013Y165118D02*
G03X146013I-11800J0D01*
G01X172071Y302342D02*
X176758D01*
X177696Y302569*
X178321Y303023*
X178633Y303705*
Y304160*
X178321Y304842*
X177696Y305296*
X176758Y305523*
X172071*
X173321Y307569D02*
X173008Y308023D01*
X172071Y308705*
X178633*
X173321Y310751D02*
X173008Y311205D01*
X172071Y311887*
X178633*
X178571Y346632D02*
X185133D01*
X178571D02*
Y348223D01*
X178883Y348905*
X179508Y349359*
X180133Y349586*
X181071Y349814*
X182633*
X183571Y349586*
X184196Y349359*
X184821Y348905*
X185133Y348223*
Y346632*
X179821Y351859D02*
X179508Y352314D01*
X178571Y352995*
X185133*
X178571Y356405D02*
X178883Y355723D01*
X179821Y355268*
X181383Y355041*
X182321*
X183883Y355268*
X184821Y355723*
X185133Y356405*
Y356859*
X184821Y357541*
X183883Y357995*
X182321Y358223*
X181383*
X179821Y357995*
X178883Y357541*
X178571Y356859*
Y356405*
X237835Y305985D02*
X244397D01*
X237835Y304394D02*
Y307576D01*
Y309622D02*
X244397Y311440D01*
X237835Y313258D02*
X244397Y311440D01*
X238772Y318485D02*
X238147Y318031D01*
X237835Y317349*
Y316440*
X238147Y315758*
X238772Y315303*
X239397*
X240022Y315531*
X240335Y315758*
X240647Y316212*
X241272Y317576*
X241585Y318031*
X241897Y318258*
X242522Y318485*
X243460*
X244085Y318031*
X244397Y317349*
Y316440*
X244085Y315758*
X243460Y315303*
X237835Y320985D02*
Y323485D01*
X240335Y322122*
Y322803*
X240647Y323258*
X240960Y323485*
X241897Y323712*
X242522*
X243460Y323485*
X244085Y323031*
X244397Y322349*
Y321667*
X244085Y320985*
X243772Y320758*
X243147Y320531*
X244426Y187073D02*
X250989D01*
X244426D02*
Y188664D01*
X244739Y189346*
X245364Y189800*
X245989Y190027*
X246926Y190255*
X248489*
X249426Y190027*
X250051Y189800*
X250676Y189346*
X250989Y188664*
Y187073*
X244426Y195255D02*
Y192982D01*
X247239Y192755*
X246926Y192982*
X246614Y193664*
Y194346*
X246926Y195027*
X247551Y195482*
X248489Y195709*
X249114Y195482*
X250051Y195255*
X250676Y194800*
X250989Y194118*
Y193437*
X250676Y192755*
X250364Y192527*
X249739Y192300*
X257677Y170613D02*
X251115D01*
X257677D02*
Y167658D01*
X254552Y170613D02*
Y168794D01*
X256115Y165385D02*
X256427D01*
X257052Y165158*
X257365Y164931*
X257677Y164476*
Y163567*
X257365Y163113*
X257052Y162885*
X256427Y162658*
X255802*
X255177Y162885*
X254240Y163340*
X251115Y165613*
Y162431*
X273405Y170247D02*
X266843D01*
X273405D02*
Y167292D01*
X270280Y170247D02*
Y168429D01*
X272155Y165247D02*
X272468Y164792D01*
X273405Y164110*
X266843*
X321237Y160575D02*
X320612Y160348D01*
X319987Y159894*
X319675Y159439*
Y158530*
X319987Y158075*
X320612Y157621*
X321237Y157394*
X322175Y157166*
X323737*
X324675Y157394*
X325300Y157621*
X325925Y158075*
X326237Y158530*
Y159439*
X325925Y159894*
X325300Y160348*
X324675Y160575*
X320612Y165348D02*
X319987Y165121D01*
X319675Y164439*
Y163984*
X319987Y163303*
X320925Y162848*
X322487Y162621*
X324050*
X325300Y162848*
X325925Y163303*
X326237Y163984*
Y164212*
X325925Y164894*
X325300Y165348*
X324362Y165575*
X324050*
X323112Y165348*
X322487Y164894*
X322175Y164212*
Y163984*
X322487Y163303*
X323112Y162848*
X324050Y162621*
X361895Y158830D02*
X361270Y158602D01*
X360645Y158148*
X360333Y157693*
Y156784*
X360645Y156330*
X361270Y155875*
X361895Y155648*
X362833Y155421*
X364395*
X365333Y155648*
X365958Y155875*
X366583Y156330*
X366895Y156784*
Y157693*
X366583Y158148*
X365958Y158602*
X365333Y158830*
X360333Y163830D02*
Y161557D01*
X363145Y161330*
X362833Y161557*
X362520Y162239*
Y162921*
X362833Y163602*
X363458Y164057*
X364395Y164284*
X365020Y164057*
X365958Y163830*
X366583Y163375*
X366895Y162693*
Y162012*
X366583Y161330*
X366270Y161102*
X365645Y160875*
X365300Y205610D02*
X371863Y208792D01*
X365300D02*
X371863Y205610D01*
X366550Y210837D02*
X366238Y211292D01*
X365300Y211974*
X371863*
X481230Y165327D02*
X481855Y165555D01*
X482480Y166009*
X482793Y166464*
Y167373*
X482480Y167827*
X481855Y168282*
X481230Y168509*
X480293Y168736*
X478730*
X477793Y168509*
X477168Y168282*
X476543Y167827*
X476230Y167373*
Y166464*
X476543Y166009*
X477168Y165555*
X477793Y165327*
X481543Y163282D02*
X481855Y162827D01*
X482793Y162146*
X476230*
X400006Y160296D02*
X399381Y160068D01*
X398756Y159614*
X398444Y159159*
Y158250*
X398756Y157796*
X399381Y157341*
X400006Y157114*
X400944Y156886*
X402506*
X403444Y157114*
X404069Y157341*
X404694Y157796*
X405006Y158250*
Y159159*
X404694Y159614*
X404069Y160068*
X403444Y160296*
X398444Y164614D02*
X402819Y162341D01*
Y165750*
X398444Y164614D02*
X405006D01*
G54D56*
X211133Y292742D02*
X207233Y288842D01*
X211133D02*
Y330842D01*
X191133*
Y288842*
X211133*
X373520Y193110D02*
Y236110D01*
X393205D02*
Y193110D01*
X275374Y155427D02*
X272618D01*
X275374D02*
Y160742D01*
X271043Y164483D02*
X268681D01*
X264350Y160742D02*
Y155427D01*
X267106*
X223863Y358558D02*
Y355802D01*
Y358558D02*
X218548D01*
X214807Y354227D02*
Y351865D01*
X218548Y347534D02*
X223863D01*
Y350290*
G54D57*
X108631Y229728D02*
Y363586D01*
X188159*
Y229728*
X108631*
G54D58*
X233142Y105170D02*
Y140170D01*
X293142*
Y105170*
X233142*
X258142Y105670D02*
Y110670D01*
X268142*
Y105670*
X287940Y217136D02*
X252940D01*
Y277136*
X287940*
Y217136*
X287440Y242136D02*
X282440D01*
Y252136*
X287440*
G54D59*
X301204Y314505D02*
X280338D01*
Y394427*
X301204*
Y314505*
X330100Y314140D02*
X309234D01*
Y394061*
X330100*
Y314140*
X358629Y314505D02*
X337763D01*
Y394427*
X358629*
Y314505*
X386793D02*
X365927D01*
Y394427*
X386793*
Y314505*
X414226Y314871D02*
X393359D01*
Y394792*
X414226*
Y314871*
X240563Y302464D02*
X247078D01*
Y318114*
X241862Y323331*
X240563*
X232728Y302464D02*
X226212D01*
Y318114*
X231429Y323331*
X232728*
G54D60*
X434919Y348354D02*
X437687D01*
X438241Y348488*
X438610Y348757*
X438795Y349159*
Y349428*
X438610Y349830*
X438241Y350099*
X437687Y350233*
X434919*
X435657Y351441D02*
X435473Y351709D01*
X434919Y352112*
X438795*
X445261Y290412D02*
Y286537D01*
Y290412D02*
X446469D01*
X446871Y290227*
X447005Y290043*
X447140Y289674*
Y289305*
X447005Y288936*
X446871Y288751*
X446469Y288567*
X445261*
X446200D02*
X447140Y286537D01*
X449690Y290412D02*
X448348Y287828D01*
X450361*
X449690Y290412D02*
Y286537D01*
X453314Y289120D02*
X453179Y288567D01*
X452911Y288197*
X452508Y288013*
X452374*
X451971Y288197*
X451703Y288567*
X451569Y289120*
Y289305*
X451703Y289858*
X451971Y290227*
X452374Y290412*
X452508*
X452911Y290227*
X453179Y289858*
X453314Y289120*
Y288197*
X453179Y287275*
X452911Y286721*
X452508Y286537*
X452240*
X451837Y286721*
X451703Y287090*
X446989Y310911D02*
Y307036D01*
Y310911D02*
X448197D01*
X448600Y310727*
X448734Y310542*
X448868Y310173*
Y309804*
X448734Y309435*
X448600Y309250*
X448197Y309066*
X446989*
X447929D02*
X448868Y307036D01*
X450076Y310173D02*
X450345Y310358D01*
X450345D02*
X450747Y310911D01*
Y307036*
X453700Y309619D02*
X453566Y309066D01*
X453298Y308697*
X452895Y308512*
X452761*
X452358Y308697*
X452090Y309066*
X451955Y309619*
Y309804*
X452090Y310358*
X452090D02*
X452358Y310727D01*
X452761Y310911*
X452895*
X453298Y310727*
X453566Y310358*
X453566D02*
X453700Y309619D01*
Y308697*
X453566Y307774*
X453298Y307220*
X452895Y307036*
X452626*
X452224Y307220*
X452090Y307589*
X445619Y301592D02*
Y297717D01*
Y301592D02*
X446827D01*
X447230Y301408*
X447364Y301223*
X447498Y300854*
Y300485*
X447364Y300116*
X447230Y299931*
X446827Y299747*
X445619*
X446559D02*
X447498Y297717D01*
X448841Y300670D02*
Y300854D01*
X448975Y301223*
X449109Y301408*
X449377Y301592*
X449914*
X450183Y301408*
X450317Y301223*
X450451Y300854*
Y300485*
X450317Y300116*
X450048Y299562*
X450048D02*
X448706Y297717D01*
X450585*
X452599Y301592D02*
X452196Y301408D01*
X451928Y300854*
X451793Y299931*
Y299378*
X451928Y298455*
X452196Y297901*
X452599Y297717*
X452867*
X453270Y297901*
X453538Y298455*
X453672Y299378*
Y299931*
X453538Y300854*
X453270Y301408*
X452867Y301592*
X452599*
X447522Y321077D02*
Y317201D01*
Y321077D02*
X448729D01*
X449132Y320892*
X449266Y320708*
X449401Y320338*
Y319969*
X449266Y319600*
X449132Y319416*
X448729Y319231*
X447522*
X448461D02*
X449401Y317201D01*
X450608Y320338D02*
X450877Y320523D01*
X451280Y321077*
Y317201*
X453159Y321077D02*
X452756Y320892D01*
X452622Y320523*
Y320154*
X452756Y319785*
X453024Y319600*
X453561Y319416*
X453964Y319231*
X454232Y318862*
X454367Y318493*
Y317939*
X454232Y317570*
X454098Y317386*
X453695Y317201*
X453159*
X452756Y317386*
X452622Y317570*
X452488Y317939*
Y318493*
X452622Y318862*
X452890Y319231*
X453293Y319416*
X453830Y319600*
X454098Y319785*
X454232Y320154*
Y320523*
X454098Y320892*
X453695Y321077*
X453159*
X440808Y266306D02*
Y262431D01*
Y266306D02*
X442016D01*
X442418Y266122*
X442553Y265937*
X442687Y265568*
Y265199*
X442553Y264830*
X442418Y264646*
X442016Y264461*
X440808*
X441747D02*
X442687Y262431D01*
X444029Y265384D02*
Y265568D01*
X444163Y265937*
X444298Y266122*
X444566Y266306*
X445103*
X445371Y266122*
X445505Y265937*
X445640Y265568*
Y265199*
X445505Y264830*
X445237Y264276*
X443895Y262431*
X445774*
X447116Y265384D02*
Y265568D01*
X447250Y265937*
X447384Y266122*
X447653Y266306*
X448190*
X448458Y266122*
X448592Y265937*
X448727Y265568*
Y265199*
X448592Y264830*
X448324Y264276*
X446982Y262431*
X448861*
X440375Y276347D02*
Y272472D01*
Y276347D02*
X441583D01*
X441985Y276163*
X442120Y275978*
X442254Y275609*
Y275240*
X442120Y274871*
X441985Y274686*
X441583Y274502*
X440375*
X441314D02*
X442254Y272472D01*
X443596Y275425D02*
Y275609D01*
X443730Y275978*
X443864Y276163*
X444133Y276347*
X444670*
X444938Y276163*
X445072Y275978*
X445207Y275609*
Y275240*
X445072Y274871*
X444804Y274317*
X443462Y272472*
X445341*
X446549Y275609D02*
X446817Y275794D01*
X447220Y276347*
Y272472*
X439771Y255613D02*
Y251737D01*
Y255613D02*
X440979D01*
X441381Y255428*
X441516Y255244*
X441650Y254875*
Y254506*
X441516Y254137*
X441381Y253952*
X440979Y253767*
X439771*
X440710D02*
X441650Y251737D01*
X442992Y254690D02*
Y254875D01*
X443126Y255244*
X443260Y255428*
X443529Y255613*
X444066*
X444334Y255428*
X444468Y255244*
X444603Y254875*
Y254506*
X444468Y254137*
X444200Y253583*
X442858Y251737*
X444737*
X446213Y255613D02*
X447690D01*
X446884Y254137*
X447287*
X447555Y253952*
X447690Y253767*
X447824Y253214*
Y252845*
X447690Y252291*
X447421Y251922*
X447019Y251737*
X446616*
X446213Y251922*
X446079Y252107*
X445945Y252476*
X439704Y246061D02*
Y242186D01*
Y246061D02*
X440912D01*
X441314Y245877*
X441449Y245692*
X441583Y245323*
Y244954*
X441449Y244585*
X441314Y244400*
X440912Y244216*
X439704*
X440643D02*
X441583Y242186D01*
X442925Y245138D02*
Y245323D01*
X443059Y245692*
X443193Y245877*
X443462Y246061*
X443999*
X444267Y245877*
X444401Y245692*
X444536Y245323*
Y244954*
X444401Y244585*
X444133Y244031*
X442791Y242186*
X444670*
X447220Y246061D02*
X445878Y243477D01*
X447891*
X447220Y246061D02*
Y242186D01*
X439771Y205291D02*
Y201416D01*
Y205291D02*
X440979D01*
X441381Y205107*
X441516Y204922*
X441650Y204553*
Y204184*
X441516Y203815*
X441381Y203630*
X440979Y203446*
X439771*
X440710D02*
X441650Y201416D01*
X442992Y204368D02*
Y204553D01*
X443126Y204922*
X443260Y205107*
X443529Y205291*
X444066*
X444334Y205107*
X444468Y204922*
X444603Y204553*
Y204184*
X444468Y203815*
X444200Y203261*
X442858Y201416*
X444737*
X446616Y205291D02*
X446213Y205107D01*
X446079Y204738*
Y204368*
X446213Y203999*
X446482Y203815*
X447019Y203630*
X447421Y203446*
X447690Y203077*
X447824Y202708*
Y202154*
X447690Y201785*
X447555Y201600*
X447153Y201416*
X446616*
X446213Y201600*
X446079Y201785*
X445945Y202154*
Y202708*
X446079Y203077*
X446347Y203446*
X446750Y203630*
X447287Y203815*
X447555Y203999*
X447690Y204368*
Y204738*
X447555Y205107*
X447153Y205291*
X446616*
X439238Y235577D02*
Y231702D01*
Y235577D02*
X440446D01*
X440848Y235393*
X440983Y235208*
X441117Y234839*
Y234470*
X440983Y234101*
X440848Y233917*
X440446Y233732*
X439238*
X440177D02*
X441117Y231702D01*
X442459Y234655D02*
Y234839D01*
X442593Y235208*
X442727Y235393*
X442996Y235577*
X443533*
X443801Y235393*
X443935Y235208*
X444070Y234839*
Y234470*
X443935Y234101*
X443667Y233547*
X442325Y231702*
X444204*
X447157Y235577D02*
X445814D01*
X445680Y233917*
X445814Y234101*
X446217Y234286*
X446620*
X447022Y234101*
X447291Y233732*
X447425Y233178*
X447291Y232809*
X447157Y232256*
X446888Y231887*
X446485Y231702*
X446083*
X445680Y231887*
X445546Y232071*
X445412Y232440*
X439372Y224861D02*
Y220985D01*
Y224861D02*
X440580D01*
X440983Y224676*
X441117Y224492*
X441251Y224123*
Y223754*
X441117Y223384*
X440983Y223200*
X440580Y223015*
X439372*
X440312D02*
X441251Y220985D01*
X442593Y223938D02*
Y224123D01*
X442727Y224492*
X442862Y224676*
X443130Y224861*
X443667*
X443935Y224676*
X444070Y224492*
X444204Y224123*
Y223754*
X444070Y223384*
X443801Y222831*
X442459Y220985*
X444338*
X447157Y224307D02*
X447022Y224676D01*
X446620Y224861*
X446351*
X445949Y224676*
X445680Y224123*
X445546Y223200*
Y222277*
X445680Y221539*
X445949Y221170*
X446351Y220985*
X446485*
X446888Y221170*
X447157Y221539*
X447291Y222093*
Y222277*
X447157Y222831*
X446888Y223200*
X446485Y223384*
X446351*
X445949Y223200*
X445680Y222831*
X445546Y222277*
X439305Y215542D02*
Y211666D01*
Y215542D02*
X440513D01*
X440915Y215357*
X441050Y215173*
X441184Y214804*
Y214435*
X441050Y214066*
X440915Y213881*
X440513Y213696*
X439305*
X440244D02*
X441184Y211666D01*
X442526Y214619D02*
Y214804D01*
X442660Y215173*
X442795Y215357*
X443063Y215542*
X443600*
X443868Y215357*
X444002Y215173*
X444137Y214804*
Y214435*
X444002Y214066*
X443734Y213512*
X442392Y211666*
X444271*
X447358Y215542D02*
X446016Y211666D01*
X445479Y215542D02*
X447358D01*
X423510Y224744D02*
Y220869D01*
Y224744D02*
X424718D01*
X425120Y224560*
X425255Y224375*
X425389Y224006*
Y223637*
X425255Y223268*
X425120Y223083*
X424718Y222899*
X423510*
X424449D02*
X425389Y220869D01*
X426731Y223821D02*
Y224006D01*
X426865Y224375*
X426999Y224560*
X427268Y224744*
X427805*
X428073Y224560*
X428207Y224375*
X428342Y224006*
Y223637*
X428207Y223268*
X427939Y222714*
X426597Y220869*
X428476*
X431429Y223452D02*
X431294Y222899D01*
X431026Y222530*
X430623Y222345*
X430489*
X430086Y222530*
X429818Y222899*
X429684Y223452*
Y223637*
X429818Y224191*
X430086Y224560*
X430489Y224744*
X430623*
X431026Y224560*
X431294Y224191*
X431429Y223452*
Y222530*
X431294Y221607*
X431026Y221053*
X430623Y220869*
X430355*
X429952Y221053*
X429818Y221422*
X423376Y204906D02*
Y201030D01*
Y204906D02*
X424583D01*
X424986Y204721*
X425120Y204537*
X425255Y204168*
Y203798*
X425120Y203429*
X424986Y203245*
X424583Y203060*
X423376*
X424315D02*
X425255Y201030D01*
X426731Y204906D02*
X428207D01*
X427402Y203429*
X427805*
X428073Y203245*
X428207Y203060*
X428342Y202507*
Y202138*
X428207Y201584*
X427939Y201215*
X427536Y201030*
X427134*
X426731Y201215*
X426597Y201399*
X426463Y201768*
X431294Y204906D02*
X429952D01*
X429818Y203245*
X429952Y203429*
X430355Y203614*
X430757*
X431160Y203429*
X431429Y203060*
X431563Y202507*
X431429Y202138*
X431294Y201584*
X431026Y201215*
X430623Y201030*
X430221*
X429818Y201215*
X429684Y201399*
X429549Y201768*
X424924Y246200D02*
Y242325D01*
Y246200D02*
X426132D01*
X426534Y246016*
X426668Y245831*
X426803Y245462*
Y245093*
X426668Y244724*
X426534Y244539*
X426132Y244355*
X424924*
X425863D02*
X426803Y242325D01*
X429755Y244909D02*
X429621Y244355D01*
X429353Y243986*
X428950Y243801*
X428816*
X428413Y243986*
X428145Y244355*
X428011Y244909*
Y245093*
X428145Y245647*
X428413Y246016*
X428816Y246200*
X428950*
X429353Y246016*
X429621Y245647*
X429755Y244909*
Y243986*
X429621Y243063*
X429353Y242509*
X428950Y242325*
X428682*
X428279Y242509*
X428145Y242879*
X423313Y235756D02*
Y231880D01*
Y235756D02*
X424521D01*
X424924Y235571*
X425058Y235387*
X425192Y235018*
Y234648*
X425058Y234279*
X424924Y234095*
X424521Y233910*
X423313*
X424253D02*
X425192Y231880D01*
X426668Y235756D02*
X428145D01*
X427340Y234279*
X427742*
X428011Y234095*
X428145Y233910*
X428279Y233357*
Y232988*
X428145Y232434*
X427876Y232065*
X427474Y231880*
X427071*
X426668Y232065*
X426534Y232249*
X426400Y232618*
X431366Y235756D02*
X430024Y231880D01*
X429487Y235756D02*
X431366D01*
X423658Y214630D02*
Y210755D01*
Y214630D02*
X424866D01*
X425268Y214446*
X425402Y214261*
X425537Y213892*
Y213523*
X425402Y213154*
X425268Y212970*
X424866Y212785*
X423658*
X424597D02*
X425537Y210755D01*
X427013Y214630D02*
X428489D01*
X427684Y213154*
X428087*
X428355Y212970*
X428489Y212785*
X428624Y212231*
Y211862*
X428489Y211309*
X428221Y210939*
X427818Y210755*
X427416*
X427013Y210939*
X426879Y211124*
X426745Y211493*
X429832Y213892D02*
X430100Y214077D01*
X430503Y214630*
Y210755*
X422530Y265784D02*
Y261909D01*
Y265784D02*
X423738D01*
X424140Y265600*
X424274Y265415*
X424409Y265046*
Y264677*
X424274Y264308*
X424140Y264123*
X423738Y263939*
X422530*
X423469D02*
X424409Y261909D01*
X425885Y265784D02*
X427361D01*
X426556Y264308*
X426959*
X427227Y264123*
X427361Y263939*
X427496Y263385*
Y263016*
X427361Y262462*
X427093Y262093*
X426690Y261909*
X426288*
X425885Y262093*
X425751Y262278*
X425617Y262647*
X429375Y265784D02*
X428972Y265600D01*
X428838Y265231*
Y264861*
X428972Y264492*
X429240Y264308*
X429777Y264123*
X430180Y263939*
X430448Y263570*
X430583Y263201*
Y262647*
X430448Y262278*
X430314Y262093*
X429912Y261909*
X429375*
X428972Y262093*
X428838Y262278*
X428704Y262647*
Y263201*
X428838Y263570*
X429106Y263939*
X429509Y264123*
X430046Y264308*
X430314Y264492*
X430448Y264861*
Y265231*
X430314Y265600*
X429912Y265784*
X429375*
X422547Y275870D02*
Y271995D01*
Y275870D02*
X423755D01*
X424157Y275686*
X424291Y275501*
X424426Y275132*
Y274763*
X424291Y274394*
X424157Y274210*
X423755Y274025*
X422547*
X423486D02*
X424426Y271995D01*
X425634Y275132D02*
X425902Y275317D01*
X426305Y275870*
Y271995*
X428855Y275870D02*
X427513Y273287D01*
X429526*
X428855Y275870D02*
Y271995D01*
X423768Y255340D02*
Y251464D01*
Y255340D02*
X424976D01*
X425379Y255155*
X425513Y254970*
X425647Y254601*
Y254232*
X425513Y253863*
X425379Y253679*
X424976Y253494*
X423768*
X424708D02*
X425647Y251464D01*
X427124Y255340D02*
X428600D01*
X427795Y253863*
X428197*
X428466Y253679*
X428600Y253494*
X428734Y252940*
Y252571*
X428600Y252018*
X428332Y251649*
X427929Y251464*
X427526*
X427124Y251649*
X426989Y251833*
X426855Y252202*
X431284Y255340D02*
X429942Y252756D01*
X431955*
X431284Y255340D02*
Y251464D01*
X432847Y193953D02*
Y190078D01*
Y193953D02*
X434055D01*
X434458Y193769*
X434592Y193584*
X434726Y193215*
Y192846*
X434592Y192477*
X434458Y192292*
X434055Y192108*
X432847*
X433787D02*
X434726Y190078D01*
X435934Y193215D02*
X436203Y193399D01*
X436605Y193953*
Y190078*
X437813Y193215D02*
X438082Y193399D01*
X438484Y193953*
Y190078*
X152922Y384798D02*
Y380923D01*
Y384798D02*
X154129D01*
X154532Y384614*
X154666Y384429*
X154801Y384060*
Y383691*
X154666Y383322*
X154532Y383137*
X154129Y382953*
X152922*
X153861D02*
X154801Y380923D01*
X157753Y384798D02*
X156411D01*
X156277Y383137*
X156411Y383322*
X156814Y383506*
X157216*
X157619Y383322*
X157888Y382953*
X158022Y382399*
X157888Y382030*
X157753Y381476*
X157485Y381107*
X157082Y380923*
X156680*
X156277Y381107*
X156143Y381292*
X156009Y381661*
X159498Y384798D02*
X160975D01*
X160169Y383322*
X160572*
X160840Y383137*
X160975Y382953*
X161109Y382399*
Y382030*
X160975Y381476*
X160706Y381107*
X160303Y380923*
X159901*
X159498Y381107*
X159364Y381292*
X159230Y381661*
X161644Y397900D02*
Y394025D01*
Y397900D02*
X162583D01*
X162986Y397715*
X163254Y397346*
X163388Y396977*
X163523Y396424*
Y395501*
X163388Y394947*
X163254Y394578*
X162986Y394209*
X162583Y394025*
X161644*
X164731Y397162D02*
X164999Y397346D01*
X165402Y397900*
Y394025*
X168220Y397346D02*
X168086Y397715D01*
X167683Y397900*
X167415*
X167012Y397715*
X166744Y397162*
X166610Y396239*
Y395316*
X166744Y394578*
X167012Y394209*
X167415Y394025*
X167549*
X167952Y394209*
X168220Y394578*
X168354Y395132*
Y395316*
X168220Y395870*
X167952Y396239*
X167549Y396424*
X167415*
X167012Y396239*
X166744Y395870*
X166610Y395316*
X175032Y376287D02*
Y372412D01*
X174092Y376287D02*
X175971D01*
X177179D02*
Y372412D01*
Y376287D02*
X178387D01*
X178790Y376103*
X178924Y375918*
X179058Y375549*
Y374996*
X178924Y374626*
X178790Y374442*
X178387Y374257*
X177179*
X180266Y375549D02*
X180535Y375734D01*
X180937Y376287*
Y372412*
X193820Y388537D02*
X197696D01*
X193820D02*
Y389745D01*
X194005Y390148*
X194189Y390282*
X194558Y390416*
X194927*
X195296Y390282*
X195481Y390148*
X195666Y389745*
Y388537*
Y389477D02*
X197696Y390416D01*
X193820Y391893D02*
Y393369D01*
X195296Y392564*
Y392967*
X195481Y393235*
X195666Y393369*
X196219Y393503*
X196588*
X197142Y393369*
X197511Y393101*
X197696Y392698*
Y392295*
X197511Y391893*
X197326Y391759*
X196957Y391624*
X195112Y396456D02*
X195666Y396322D01*
X196035Y396054*
X196219Y395651*
Y395517*
X196035Y395114*
X195666Y394846*
X195112Y394711*
X194927*
X194374Y394846*
X194005Y395114*
X193820Y395517*
Y395651*
X194005Y396054*
X194374Y396322*
X195112Y396456*
X196035*
X196957Y396322*
X197511Y396054*
X197696Y395651*
Y395382*
X197511Y394980*
X197142Y394846*
X202553Y236658D02*
X202419Y237027D01*
X202150Y237396*
X201882Y237581*
X201345*
X201076Y237396*
X200808Y237027*
X200674Y236658*
X200540Y236104*
Y235182*
X200674Y234628*
X200808Y234259*
X201076Y233890*
X201345Y233705*
X201882*
X202150Y233890*
X202419Y234259*
X202553Y234628*
X205506Y236289D02*
X205371Y235735D01*
X205103Y235366*
X204700Y235182*
X204566*
X204163Y235366*
X203895Y235735*
X203761Y236289*
Y236474*
X203895Y237027*
X204163Y237396*
X204566Y237581*
X204700*
X205103Y237396*
X205371Y237027*
X205506Y236289*
Y235366*
X205371Y234443*
X205103Y233890*
X204700Y233705*
X204432*
X204029Y233890*
X203895Y234259*
X207398Y389448D02*
X211274D01*
X207398D02*
Y390656D01*
X207583Y391058*
X207767Y391192*
X208136Y391327*
X208505*
X208875Y391192*
X209059Y391058*
X209244Y390656*
Y389448*
Y390387D02*
X211274Y391327D01*
X207398Y393877D02*
X209982Y392535D01*
Y394548*
X207398Y393877D02*
X211274D01*
X207398Y396561D02*
X207583Y396158D01*
X208136Y395890*
X209059Y395756*
X209613*
X210535Y395890*
X211089Y396158*
X211274Y396561*
Y396830*
X211089Y397232*
X210535Y397501*
X209613Y397635*
X209059*
X208136Y397501*
X207583Y397232*
X207398Y396830*
Y396561*
X217460Y316945D02*
X217091Y316811D01*
X216722Y316542*
X216537Y316274*
Y315737*
X216722Y315468*
X217091Y315200*
X217460Y315066*
X218014Y314932*
X218936*
X219490Y315066*
X219859Y315200*
X220228Y315468*
X220413Y315737*
Y316274*
X220228Y316542*
X219859Y316811*
X219490Y316945*
X217275Y318153D02*
X217091Y318421D01*
X216537Y318824*
X220413*
X217275Y320032D02*
X217091Y320300D01*
X216537Y320703*
X220413*
X217721Y298324D02*
X217352Y298190D01*
X216983Y297921*
X216798Y297653*
Y297116*
X216983Y296847*
X217352Y296579*
X217721Y296445*
X218275Y296311*
X219197*
X219751Y296445*
X220120Y296579*
X220489Y296847*
X220674Y297116*
Y297653*
X220489Y297921*
X220120Y298190*
X219751Y298324*
X217537Y299532D02*
X217352Y299800D01*
X216798Y300203*
X220674*
X216798Y302216D02*
X216983Y301813D01*
X217537Y301545*
X218459Y301411*
X219013*
X219936Y301545*
X220489Y301813*
X220674Y302216*
Y302485*
X220674D02*
X220489Y302887D01*
X219936Y303156*
X219013Y303290*
X218459*
X217537Y303156*
X216983Y302887*
X216798Y302485*
X216798D02*
Y302216D01*
X228288Y374086D02*
X231056D01*
X231609Y374220*
X231978Y374488*
X232163Y374891*
Y375159*
X231978Y375562*
X231609Y375830*
X231056Y375965*
X228288*
Y377844D02*
X228472Y377441D01*
X228841Y377307*
X229210*
X229579Y377441*
X229764Y377709*
X229948Y378246*
X230133Y378649*
X230502Y378917*
X230871Y379052*
X231425*
X231794Y378917*
X231978Y378783*
X232163Y378381*
Y377844*
X231978Y377441*
X231794Y377307*
X231425Y377173*
X230871*
X230502Y377307*
X230133Y377575*
X229948Y377978*
X229764Y378515*
X229579Y378783*
X229210Y378917*
X228841*
X228472Y378783*
X228288Y378381*
Y377844*
X232074Y340114D02*
X231940Y340483D01*
X231671Y340852*
X231403Y341037*
X230866*
X230597Y340852*
X230329Y340483*
X230195Y340114*
X230061Y339560*
Y338637*
X230195Y338084*
X230329Y337715*
X230597Y337346*
X230866Y337161*
X231403*
X231671Y337346*
X231940Y337715*
X232074Y338084*
X235161Y341037D02*
X233819Y337161D01*
X233282Y341037D02*
X235161D01*
X232596Y354736D02*
X232462Y355105D01*
X232193Y355475*
X231925Y355659*
X231388*
X231120Y355475*
X230851Y355105*
X230717Y354736*
X230583Y354183*
Y353260*
X230717Y352706*
X230851Y352337*
X231120Y351968*
X231388Y351784*
X231925*
X232193Y351968*
X232462Y352337*
X232596Y352706*
X234475Y355659D02*
X234072Y355475D01*
X233938Y355105*
Y354736*
X234072Y354367*
X234341Y354183*
X234878Y353998*
X235280Y353814*
X235549Y353445*
X235683Y353075*
Y352522*
X235549Y352153*
X235415Y351968*
X235012Y351784*
X234475*
X234072Y351968*
X233938Y352153*
X233804Y352522*
Y353075*
X233938Y353445*
X234207Y353814*
X234609Y353998*
X235146Y354183*
X235415Y354367*
X235549Y354736*
Y355105*
X235415Y355475*
X235012Y355659*
X234475*
X232449Y182945D02*
X236324D01*
X232449D02*
Y184153D01*
X232633Y184555*
X232818Y184689*
X233187Y184824*
X233556*
X233925Y184689*
X234110Y184555*
X234294Y184153*
Y182945*
Y183884D02*
X236324Y184824D01*
X233002Y187642D02*
X232633Y187508D01*
X232449Y187105*
Y186837*
X232633Y186434*
X233187Y186166*
X234110Y186032*
X235032*
X235771Y186166*
X236140Y186434*
X236324Y186837*
Y186971*
X236140Y187374*
X235771Y187642*
X235217Y187776*
X235032*
X234479Y187642*
X234110Y187374*
X233925Y186971*
Y186837*
X234110Y186434*
X234479Y186166*
X235032Y186032*
X234368Y287329D02*
Y283453D01*
X233428Y287329D02*
X235307D01*
X236515D02*
Y283453D01*
Y287329D02*
X237723D01*
X238126Y287144*
X238260Y286959*
X238394Y286590*
Y286037*
X238260Y285668*
X238126Y285483*
X237723Y285299*
X236515*
X239736Y286406D02*
Y286590D01*
X239871Y286959*
X240005Y287144*
X240273Y287329*
X240810*
X241079Y287144*
X241213Y286959*
X241347Y286590*
Y286221*
X241213Y285852*
X240944Y285299*
X239602Y283453*
X241481*
X238074Y227796D02*
Y223920D01*
Y227796D02*
X239282D01*
X239684Y227611*
X239819Y227427*
X239953Y227058*
Y226688*
X239819Y226319*
X239684Y226135*
X239282Y225950*
X238074*
X239013D02*
X239953Y223920D01*
X241161Y227058D02*
X241429Y227242D01*
X241832Y227796*
Y223920*
X244919Y227796D02*
X243577Y223920D01*
X243040Y227796D02*
X244919D01*
X237794Y238391D02*
Y234515D01*
Y238391D02*
X239002D01*
X239405Y238206*
X239539Y238021*
X239673Y237652*
Y237283*
X239539Y236914*
X239405Y236730*
X239002Y236545*
X237794*
X238734D02*
X239673Y234515D01*
X242223Y238391D02*
X240881Y235807D01*
X242894*
X242223Y238391D02*
Y234515D01*
X244774Y238391D02*
X244371Y238206D01*
X244237Y237837*
Y237468*
X244371Y237099*
X244639Y236914*
X245176Y236730*
X245579Y236545*
X245847Y236176*
X245981Y235807*
Y235253*
X245847Y234884*
X245713Y234700*
X245310Y234515*
X244774*
X244371Y234700*
X244237Y234884*
X244102Y235253*
Y235807*
X244237Y236176*
X244505Y236545*
X244908Y236730*
X245445Y236914*
X245713Y237099*
X245847Y237468*
Y237837*
X245713Y238206*
X245310Y238391*
X244774*
X238510Y203970D02*
Y200095D01*
Y203970D02*
X239718D01*
X240120Y203786*
X240254Y203601*
X240389Y203232*
Y202863*
X240254Y202494*
X240120Y202310*
X239718Y202125*
X238510*
X239449D02*
X240389Y200095D01*
X241865Y203970D02*
X243341D01*
X242536Y202494*
X242939*
X243207Y202310*
X243341Y202125*
X243476Y201571*
Y201202*
X243341Y200649*
X243073Y200280*
X242670Y200095*
X242268*
X241865Y200280*
X241731Y200464*
X241597Y200833*
X237969Y258343D02*
Y254467D01*
Y258343D02*
X239177D01*
X239580Y258158*
X239714Y257974*
X239848Y257604*
Y257235*
X239714Y256866*
X239580Y256682*
X239177Y256497*
X237969*
X238909D02*
X239848Y254467D01*
X242398Y258343D02*
X241056Y255759D01*
X243069*
X242398Y258343D02*
Y254467D01*
X246156Y258343D02*
X244814Y254467D01*
X244277Y258343D02*
X246156D01*
X238336Y247664D02*
Y243789D01*
Y247664D02*
X239544D01*
X239947Y247480*
X240081Y247295*
X240215Y246926*
Y246557*
X240081Y246188*
X239947Y246003*
X239544Y245819*
X238336*
X239276D02*
X240215Y243789D01*
X241423Y246926D02*
X241692Y247111D01*
X242094Y247664*
Y243789*
X245047Y247664D02*
X243705D01*
X243571Y246003*
X243705Y246188*
X244108Y246373*
X244510*
X244913Y246188*
X245181Y245819*
X245316Y245265*
X245181Y244896*
X245047Y244343*
X244779Y243973*
X244376Y243789*
X243973*
X243571Y243973*
X243437Y244158*
X243302Y244527*
X238416Y269837D02*
Y265961D01*
Y269837D02*
X239624D01*
X240026Y269652*
X240161Y269468*
X240295Y269099*
Y268730*
X240161Y268361*
X240026Y268176*
X239624Y267991*
X238416*
X239355D02*
X240295Y265961D01*
X241503Y269099D02*
X241771Y269283D01*
X242174Y269837*
Y265961*
X244992Y269283D02*
X244858Y269652D01*
X244455Y269837*
X244187*
X243784Y269652*
X243516Y269099*
X243382Y268176*
Y267253*
X243516Y266515*
X243784Y266146*
X244187Y265961*
X244321*
X244724Y266146*
X244992Y266515*
X245127Y267069*
Y267253*
X244992Y267807*
X244724Y268176*
X244321Y268361*
X244187*
X243784Y268176*
X243516Y267807*
X243382Y267253*
X247811Y183116D02*
X251686D01*
X247811D02*
Y184324D01*
X247995Y184726*
X248180Y184861*
X248180D02*
X248549Y184995D01*
X248918*
X249287Y184861*
X249287D02*
X249472Y184726D01*
X249656Y184324*
Y183116*
Y184055D02*
X251686Y184995D01*
X248549Y186203D02*
X248365Y186471D01*
X247811Y186874*
X251686*
X245608Y340274D02*
Y336398D01*
Y340274D02*
X246816D01*
X247218Y340089*
X247352Y339905*
X247487Y339536*
Y339167*
X247352Y338798*
X247352D02*
X247218Y338613D01*
X246816Y338428*
X245608*
X246547D02*
X247487Y336398D01*
X250439Y340274D02*
X249097D01*
X248963Y338613*
X249097Y338798*
X249097D02*
X249500Y338982D01*
X249903*
X250305Y338798*
X250305D02*
X250574Y338428D01*
X250708Y337875*
X250574Y337506*
X250439Y336952*
X250171Y336583*
X249768Y336398*
X249366*
X248963Y336583*
X248829Y336767*
X248695Y337137*
X252050Y339351D02*
Y339536D01*
X252184Y339905*
X252318Y340089*
X252587Y340274*
X253124*
X253392Y340089*
X253526Y339905*
X253661Y339536*
Y339167*
X253526Y338798*
X253526D02*
X253258Y338244D01*
X251916Y336398*
X253795*
X246279Y355444D02*
Y351569D01*
Y355444D02*
X247487D01*
X247889Y355260*
X248023Y355075*
X248158Y354706*
Y354337*
X248023Y353968*
X247889Y353784*
X247487Y353599*
X246279*
X247218D02*
X248158Y351569D01*
X249366Y354706D02*
X249634Y354891D01*
X250037Y355444*
Y351569*
X252050Y355444D02*
X251647Y355260D01*
X251379Y354706*
X251245Y353784*
Y353230*
X251379Y352307*
X251647Y351753*
X252050Y351569*
X252318*
X252721Y351753*
X252989Y352307*
X253124Y353230*
Y353784*
X252989Y354706*
X252721Y355260*
X252318Y355444*
X252050*
X249960Y373079D02*
X253836D01*
X249960D02*
Y374287D01*
X250145Y374690*
X250329Y374824*
X250698Y374958*
X251068*
X251437Y374824*
X251621Y374690*
X251806Y374287*
Y373079*
Y374019D02*
X253836Y374958D01*
X249960Y377508D02*
X252544Y376166D01*
Y378179*
X249960Y377508D02*
X253836D01*
X250698Y379387D02*
X250514Y379656D01*
X249960Y380058*
X253836*
X247067Y398609D02*
Y394733D01*
Y398609D02*
X248007D01*
X248410Y398424*
X248678Y398055*
X248812Y397686*
X248946Y397133*
Y396210*
X248812Y395656*
X248678Y395287*
X248410Y394918*
X248007Y394733*
X247067*
X250289Y397686D02*
Y397871D01*
X250423Y398240*
X250557Y398424*
X250826Y398609*
X251362*
X251631Y398424*
X251765Y398240*
X251899Y397871*
Y397502*
X251765Y397133*
X251497Y396579*
X250154Y394733*
X252033*
X254047Y398609D02*
X253644Y398424D01*
X253376Y397871*
X253241Y396948*
Y396394*
X253376Y395472*
X253644Y394918*
X254047Y394733*
X254315*
X254718Y394918*
X254986Y395472*
X255120Y396394*
Y396948*
X254986Y397871*
X254718Y398424*
X254315Y398609*
X254047*
X247608Y409929D02*
Y406054D01*
Y409929D02*
X248548D01*
X248950Y409745*
X249219Y409375*
X249353Y409006*
X249487Y408453*
Y407530*
X249353Y406976*
X249219Y406607*
X248950Y406238*
X248548Y406054*
X247608*
X252037Y409929D02*
X250695Y407345D01*
X252708*
X252037Y409929D02*
Y406054D01*
X248008Y422569D02*
Y418694D01*
Y422569D02*
X248947D01*
X249350Y422385*
X249618Y422015*
X249753Y421646*
X249887Y421093*
Y420170*
X249753Y419616*
X249618Y419247*
X249350Y418878*
X248947Y418694*
X248008*
X251363Y422569D02*
X252840D01*
X252034Y421093*
X252437*
X252705Y420908*
X252840Y420724*
X252974Y420170*
Y419801*
X252840Y419247*
X252571Y418878*
X252168Y418694*
X251766*
X251363Y418878*
X251229Y419063*
X251095Y419432*
X262800Y330655D02*
Y326780D01*
Y330655D02*
X264008D01*
X264410Y330471*
X264545Y330286*
X264679Y329917*
Y329548*
X264545Y329179*
X264410Y328995*
X264008Y328810*
X262800*
X263739D02*
X264679Y326780D01*
X267229Y330655D02*
X265887Y328072D01*
X267900*
X267229Y330655D02*
Y326780D01*
X269242Y329733D02*
Y329917D01*
X269376Y330286*
X269511Y330471*
X269779Y330655*
X270316*
X270584Y330471*
X270719Y330286*
X270853Y329917*
Y329548*
X270719Y329179*
X270450Y328625*
X269108Y326780*
X270987*
X262867Y375568D02*
Y371692D01*
Y375568D02*
X264075D01*
X264477Y375383*
X264612Y375199*
X264746Y374829*
Y374460*
X264612Y374091*
X264477Y373907*
X264075Y373722*
X262867*
X263806D02*
X264746Y371692D01*
X267296Y375568D02*
X265954Y372984D01*
X267967*
X267296Y375568D02*
Y371692D01*
X270786Y375014D02*
X270651Y375383D01*
X270249Y375568*
X269980*
X269578Y375383*
X269309Y374829*
X269175Y373907*
Y372984*
X269309Y372246*
X269578Y371877*
X269980Y371692*
X270115*
X270517Y371877*
X270786Y372246*
X270920Y372799*
Y372984*
X270786Y373538*
X270517Y373907*
X270115Y374091*
X269980*
X269578Y373907*
X269309Y373538*
X269175Y372984*
X262994Y352589D02*
Y348714D01*
Y352589D02*
X264202D01*
X264604Y352405*
X264739Y352220*
X264873Y351851*
Y351482*
X264739Y351113*
X264604Y350928*
X264202Y350744*
X262994*
X263933D02*
X264873Y348714D01*
X267423Y352589D02*
X266081Y350006D01*
X268094*
X267423Y352589D02*
Y348714D01*
X270644Y352589D02*
X269302Y350006D01*
X271315*
X270644Y352589D02*
Y348714D01*
X262994Y363817D02*
Y359942D01*
Y363817D02*
X264202D01*
X264604Y363633*
X264739Y363448*
X264873Y363079*
Y362710*
X264739Y362341*
X264604Y362156*
X264202Y361972*
X262994*
X263933D02*
X264873Y359942D01*
X267423Y363817D02*
X266081Y361234D01*
X268094*
X267423Y363817D02*
Y359942D01*
X271047Y363817D02*
X269705D01*
X269570Y362156*
X269705Y362341*
X270107Y362525*
X270510*
X270913Y362341*
X271181Y361972*
X271315Y361418*
X271181Y361049*
X271047Y360495*
X270778Y360126*
X270376Y359942*
X269973*
X269570Y360126*
X269436Y360311*
X269302Y360680*
X263363Y386992D02*
Y383116D01*
Y386992D02*
X264571D01*
X264973Y386807*
X265108Y386623*
X265242Y386253*
Y385884*
X265108Y385515*
X264973Y385331*
X264571Y385146*
X263363*
X264302D02*
X265242Y383116D01*
X268194Y386992D02*
X266852D01*
X266718Y385331*
X266852Y385515*
X267255Y385700*
X267658*
X268060Y385515*
X268329Y385146*
X268463Y384593*
X268329Y384223*
X268194Y383670*
X267926Y383301*
X267523Y383116*
X267121*
X266718Y383301*
X266584Y383485*
X266450Y383854*
X269671Y386253D02*
X269939Y386438D01*
X270342Y386992*
Y383116*
X263322Y341622D02*
Y337747D01*
Y341622D02*
X264530D01*
X264933Y341438*
X265067Y341253*
X265201Y340884*
Y340515*
X265067Y340146*
X264933Y339961*
X264530Y339777*
X263322*
X264262D02*
X265201Y337747D01*
X267751Y341622D02*
X266409Y339039D01*
X268422*
X267751Y341622D02*
Y337747D01*
X269899Y341622D02*
X271375D01*
X270570Y340146*
X270972*
X271241Y339961*
X271375Y339777*
X271509Y339223*
Y338854*
X271375Y338301*
X271107Y337931*
X270704Y337747*
X270301*
X269899Y337931*
X269764Y338116*
X269630Y338485*
X288725Y307093D02*
Y303218D01*
Y307093D02*
X289664D01*
X290067Y306909*
X290335Y306540*
X290470Y306171*
X290604Y305617*
Y304694*
X290470Y304140*
X290335Y303771*
X290067Y303402*
X289664Y303218*
X288725*
X291812Y306355D02*
X292080Y306540D01*
X292483Y307093*
Y303218*
X293691Y306355D02*
X293959Y306540D01*
X294362Y307093*
Y303218*
X293743Y168350D02*
X297618D01*
X293743D02*
Y169289D01*
X293927Y169692*
X294296Y169961*
X294665Y170095*
X295219Y170229*
X296142*
X296695Y170095*
X297064Y169961*
X297434Y169692*
X297618Y169289*
Y168350*
X294481Y171437D02*
X294296Y171705D01*
X293743Y172108*
X297618*
X293173Y198693D02*
X297049D01*
X293173D02*
Y199901D01*
X293358Y200304*
X293542Y200438*
X293911Y200572*
X294280*
X294649Y200438*
X294834Y200304*
X295019Y199901*
Y198693*
Y199633D02*
X297049Y200572D01*
X293173Y203122D02*
X295757Y201780D01*
Y203793*
X293173Y203122D02*
X297049D01*
X299768Y186603D02*
X303643D01*
X299768D02*
Y187811D01*
X299952Y188213*
X300137Y188348*
X300506Y188482*
X300875*
X301244Y188348*
X301429Y188213*
X301613Y187811*
Y186603*
Y187542D02*
X303643Y188482D01*
X299768Y191435D02*
Y190092D01*
X301429Y189958*
X301244Y190092*
X301060Y190495*
Y190898*
X301244Y191300*
X301613Y191569*
X302167Y191703*
X302536Y191569*
X303090Y191435*
X303459Y191166*
X303643Y190763*
Y190361*
X303459Y189958*
X303274Y189824*
X302905Y189690*
X304230Y134516D02*
X308105D01*
X304230D02*
Y135724D01*
X304414Y136126*
X304599Y136261*
X304968Y136395*
X305337*
X305706Y136261*
X305891Y136126*
X306075Y135724*
Y134516*
Y135455D02*
X308105Y136395D01*
X304230Y137871D02*
Y139348D01*
X305706Y138542*
Y138945*
X305891Y139213*
X306075Y139348*
X306629Y139482*
X306998*
X307551Y139348*
X307921Y139079*
X308105Y138677*
Y138274*
X307921Y137871*
X307736Y137737*
X307367Y137603*
X304783Y142300D02*
X304414Y142166D01*
X304230Y141763*
Y141495*
X304414Y141092*
X304968Y140824*
X305891Y140690*
X306813*
X307551Y140824*
X307921Y141092*
X308105Y141495*
Y141629*
X307921Y142032*
X307551Y142300*
X306998Y142435*
X306813*
X306260Y142300*
X305891Y142032*
X305706Y141629*
Y141495*
X305891Y141092*
X306260Y140824*
X306813Y140690*
X315731Y305368D02*
Y301492D01*
Y305368D02*
X316670D01*
X317073Y305183*
X317341Y304814*
X317475Y304445*
X317610Y303891*
Y302969*
X317475Y302415*
X317341Y302046*
X317073Y301677*
X316670Y301492*
X315731*
X318818Y304629D02*
X319086Y304814D01*
X319489Y305368*
Y301492*
X320831Y304445D02*
Y304629D01*
X320965Y304999*
X321099Y305183*
X321368Y305368*
X321905*
X322173Y305183*
X322307Y304999*
X322441Y304629*
Y304260*
X322307Y303891*
X322039Y303338*
X320697Y301492*
X322576*
X321768Y152472D02*
X324536D01*
X325090Y152606*
X325459Y152874*
X325644Y153277*
Y153546*
X325459Y153948*
X325090Y154217*
X324536Y154351*
X321768*
Y157438D02*
X325644Y156096D01*
X321768Y155559D02*
Y157438D01*
X324656Y238487D02*
X327425D01*
X327978Y238621*
X328347Y238889*
X328532Y239292*
Y239560*
X328347Y239963*
X327978Y240231*
X327425Y240366*
X324656*
X325395Y241574D02*
X325210Y241842D01*
X324656Y242245*
X328532*
X324656Y244258D02*
X324841Y243855D01*
X325395Y243587*
X326317Y243453*
X326871*
X327794Y243587*
X328347Y243855*
X328532Y244258*
Y244526*
X328347Y244929*
X327794Y245197*
X326871Y245332*
X326317*
X325395Y245197*
X324841Y244929*
X324656Y244526*
Y244258*
X321269Y181621D02*
Y177745D01*
Y181621D02*
X322208D01*
X322611Y181436*
X322879Y181067*
X323013Y180698*
X323148Y180144*
Y179221*
X323013Y178668*
X322879Y178299*
X322611Y177930*
X322208Y177745*
X321269*
X326100Y180329D02*
X325966Y179775D01*
X325698Y179406*
X325295Y179221*
X325161*
X324758Y179406*
X324490Y179775*
X324356Y180329*
Y180513*
X324490Y181067*
X324758Y181436*
X325161Y181621*
X325295*
X325698Y181436*
X325966Y181067*
X326100Y180329*
Y179406*
X325966Y178483*
X325698Y177930*
X325295Y177745*
X325027*
X324624Y177930*
X324490Y178299*
X324828Y199761D02*
X324694Y200130D01*
X324425Y200500*
X324157Y200684*
X323620*
X323352Y200500*
X323083Y200130*
X322949Y199761*
X322815Y199208*
Y198285*
X322949Y197731*
X323083Y197362*
X323352Y196993*
X323620Y196809*
X324157*
X324425Y196993*
X324694Y197362*
X324828Y197731*
X326036Y199946D02*
X326304Y200130D01*
X326707Y200684*
Y196809*
X328183Y200684D02*
X329660D01*
X328854Y199208*
X329257*
X329526Y199023*
X329660Y198839*
X329794Y198285*
Y197916*
X329660Y197362*
X329391Y196993*
X328989Y196809*
X328586*
X328183Y196993*
X328049Y197178*
X327915Y197547*
X324844Y208233D02*
X324710Y208602D01*
X324441Y208971*
X324173Y209155*
X323636*
X323368Y208971*
X323099Y208602*
X322965Y208233*
X322831Y207679*
Y206756*
X322965Y206203*
X323099Y205834*
X323368Y205465*
X323636Y205280*
X324173*
X324441Y205465*
X324710Y205834*
X324844Y206203*
X326052Y208417D02*
X326320Y208602D01*
X326723Y209155*
Y205280*
X329676Y209155D02*
X328334D01*
X328199Y207495*
X328334Y207679*
X328736Y207864*
X329139*
X329541Y207679*
X329810Y207310*
X329944Y206756*
X329810Y206387*
X329676Y205834*
X329407Y205465*
X329005Y205280*
X328602*
X328199Y205465*
X328065Y205649*
X327931Y206018*
X324898Y287120D02*
X324764Y287489D01*
X324496Y287858*
X324227Y288042*
X323690*
X323422Y287858*
X323154Y287489*
X323019Y287120*
X322885Y286566*
Y285643*
X323019Y285089*
X323154Y284720*
X323422Y284351*
X323690Y284167*
X324227*
X324496Y284351*
X324764Y284720*
X324898Y285089*
X326106Y287304D02*
X326375Y287489D01*
X326777Y288042*
Y284167*
X329328Y288042D02*
X327985Y285459D01*
X329999*
X329328Y288042D02*
Y284167D01*
X325365Y278637D02*
X325231Y279006D01*
X324963Y279376*
X324694Y279560*
X324157*
X323889Y279376*
X323620Y279006*
X323486Y278637*
X323352Y278084*
Y277161*
X323486Y276607*
X323620Y276238*
X323889Y275869*
X324157Y275685*
X324694*
X324963Y275869*
X325231Y276238*
X325365Y276607*
X326573Y278822D02*
X326842Y279006D01*
X327244Y279560*
Y275685*
X330063Y279006D02*
X329929Y279376D01*
X329526Y279560*
X329258*
X328855Y279376*
X328586Y278822*
X328452Y277899*
Y276976*
X328586Y276238*
X328855Y275869*
X329258Y275685*
X329392*
X329794Y275869*
X330063Y276238*
X330197Y276792*
Y276976*
X330063Y277530*
X329794Y277899*
X329392Y278084*
X329258*
X328855Y277899*
X328586Y277530*
X328452Y276976*
X335810Y143214D02*
X339686D01*
X335810D02*
Y144422D01*
X335995Y144825*
X336180Y144959*
X336549Y145093*
X336918*
X337287Y144959*
X337471Y144825*
X337656Y144422*
Y143214*
Y144154D02*
X339686Y145093D01*
X336733Y146436D02*
X336549D01*
X336180Y146570*
X335995Y146704*
X335810Y146972*
Y147509*
X335995Y147778*
X336180Y147912*
X336549Y148046*
X336918*
X337287Y147912*
X337840Y147643*
X339686Y146301*
Y148180*
X339530Y288244D02*
Y284368D01*
X338590Y288244D02*
X340469D01*
X341677D02*
Y284368D01*
Y288244D02*
X342885D01*
X343288Y288059*
X343422Y287874*
X343422D02*
X343556Y287505D01*
Y286952*
X343422Y286583*
X343288Y286398*
X342885Y286214*
X341677*
X345033Y288244D02*
X346509D01*
X345704Y286767*
X346107*
X346375Y286583*
X346509Y286398*
X346643Y285844*
Y285475*
X346509Y284922*
X346241Y284553*
X345838Y284368*
X345435*
X345033Y284553*
X344899Y284737*
X344764Y285106*
X344676Y306874D02*
Y302998D01*
Y306874D02*
X345616D01*
X346018Y306689*
X346287Y306320*
X346421Y305951*
X346555Y305397*
Y304475*
X346421Y303921*
X346287Y303552*
X346018Y303183*
X345616Y302998*
X344676*
X347763Y306136D02*
X348032Y306320D01*
X348434Y306874*
Y302998*
X349911Y306874D02*
X351387D01*
X350582Y305397*
X350984*
X351253Y305213*
X351387Y305028*
X351521Y304475*
Y304106*
X351387Y303552*
X351119Y303183*
X350716Y302998*
X350313*
X349911Y303183*
X349776Y303367*
X349642Y303736*
X347786Y135568D02*
X351661D01*
X347786D02*
Y136776D01*
X347970Y137179*
X348155Y137313*
X348524Y137447*
X348893*
X349262Y137313*
X349447Y137179*
X349631Y136776*
Y135568*
Y136507D02*
X351661Y137447D01*
X348524Y138655D02*
X348340Y138923D01*
X347786Y139326*
X351661*
X348709Y140668D02*
X348524D01*
X348155Y140802*
X347970Y140937*
X347786Y141205*
Y141742*
X347970Y142010*
X348155Y142145*
X348524Y142279*
X348893*
X349262Y142145*
X349816Y141876*
X351661Y140534*
Y142413*
X359243Y204349D02*
X363118D01*
X359243D02*
Y205557D01*
X359427Y205960*
X359612Y206094*
X359981Y206228*
X360350*
X360719Y206094*
X360904Y205960*
X361088Y205557*
Y204349*
Y205289D02*
X363118Y206228D01*
X359243Y207705D02*
Y209181D01*
X360719Y208376*
Y208778*
X360904Y209047*
X361088Y209181*
X361642Y209315*
X362011*
X362565Y209181*
X362934Y208912*
X363118Y208510*
Y208107*
X362934Y207705*
X362749Y207570*
X362380Y207436*
X359243Y211328D02*
X359427Y210926D01*
X359981Y210657*
X360904Y210523*
X361457*
X362380Y210657*
X362934Y210926*
X363118Y211328*
Y211597*
X362934Y211999*
X362380Y212268*
X361457Y212402*
X360904*
X359981Y212268*
X359427Y211999*
X359243Y211597*
Y211328*
X363100Y152405D02*
X365868D01*
X366421Y152539*
X366791Y152807*
X366975Y153210*
Y153478*
X366791Y153881*
X366421Y154149*
X365868Y154284*
X363100*
Y157236D02*
Y155894D01*
X364761Y155760*
X364576Y155894*
X364391Y156297*
Y156700*
X364576Y157102*
X364945Y157371*
X365499Y157505*
X365868Y157371*
X366421Y157236*
X366791Y156968*
X366975Y156565*
Y156163*
X366791Y155760*
X366606Y155626*
X366237Y155492*
X362197Y181359D02*
Y177484D01*
Y181359D02*
X363136D01*
X363539Y181175*
X363808Y180806*
X363942Y180437*
X364076Y179883*
Y178960*
X363942Y178407*
X363808Y178038*
X363539Y177668*
X363136Y177484*
X362197*
X367163Y181359D02*
X365821Y177484D01*
X365284Y181359D02*
X367163D01*
X371912Y306874D02*
Y302998D01*
Y306874D02*
X372851D01*
X373254Y306689*
X373523Y306320*
X373657Y305951*
X373791Y305397*
Y304475*
X373657Y303921*
X373523Y303552*
X373254Y303183*
X372851Y302998*
X371912*
X374999Y306136D02*
X375267Y306320D01*
X375670Y306874*
Y302998*
X378220Y306874D02*
X376878Y304290D01*
X378891*
X378220Y306874D02*
Y302998D01*
X376352Y141062D02*
X380227D01*
X376352D02*
Y142270D01*
X376536Y142673*
X376721Y142807*
X377090Y142941*
X377459*
X377828Y142807*
X378013Y142673*
X378197Y142270*
Y141062*
Y142002D02*
X380227Y142941D01*
X377090Y144149D02*
X376905Y144418D01*
X376352Y144820*
X380227*
X376352Y146297D02*
Y147773D01*
X377828Y146968*
Y147370*
X378013Y147639*
X378197Y147773*
X378751Y147907*
X379120*
X379673Y147773*
X380043Y147505*
X380227Y147102*
Y146699*
X380043Y146297*
X379858Y146162*
X379489Y146028*
X388242Y136214D02*
X392117D01*
X388242D02*
Y137422D01*
X388427Y137825*
X388611Y137959*
X388980Y138093*
X389349*
X389718Y137959*
X389903Y137825*
X390087Y137422*
Y136214*
Y137154D02*
X392117Y138093D01*
X388242Y141180D02*
X392117Y139838D01*
X388242Y139301D02*
Y141180D01*
X401670Y227407D02*
X401301Y227273D01*
X400932Y227005*
X400747Y226736*
Y226199*
X400932Y225931*
X401301Y225663*
X401670Y225528*
X402224Y225394*
X403146*
X403700Y225528*
X404069Y225663*
X404438Y225931*
X404623Y226199*
Y226736*
X404438Y227005*
X404069Y227273*
X403700Y227407*
X400747Y228884D02*
Y230360D01*
X402224Y229555*
Y229957*
X402408Y230226*
X402593Y230360*
X403146Y230494*
X403515*
X404069Y230360*
X404438Y230092*
X404623Y229689*
Y229286*
X404438Y228884*
X404254Y228749*
X403885Y228615*
X401828Y198528D02*
X401459Y198394D01*
X401090Y198125*
X400905Y197857*
Y197320*
X401090Y197051*
X401459Y196783*
X401828Y196649*
X402381Y196515*
X403304*
X403858Y196649*
X404227Y196783*
X404596Y197051*
X404781Y197320*
Y197857*
X404596Y198125*
X404227Y198394*
X403858Y198528*
X401828Y199870D02*
X401643D01*
X401274Y200004*
X401090Y200138*
X400905Y200407*
Y200944*
X401090Y201212*
X401274Y201346*
X401643Y201481*
X402012*
X402381Y201346*
X402935Y201078*
X404781Y199736*
Y201615*
X402968Y152405D02*
X405736D01*
X406290Y152539*
X406659Y152807*
X406843Y153210*
Y153478*
X406659Y153881*
X406290Y154149*
X405736Y154284*
X402968*
Y156834D02*
X405552Y155492D01*
Y157505*
X402968Y156834D02*
X406843D01*
X496108Y108167D02*
X499984D01*
X496108D02*
Y109375D01*
X496108D02*
X496293Y109778D01*
X496478Y109912*
X496847Y110046*
X497216*
X497585Y109912*
X497769Y109778*
X497954Y109375*
Y108167*
Y109107D02*
X499984Y110046D01*
X496108Y112999D02*
Y111657D01*
X496108D02*
X497769Y111523D01*
X497585Y111657*
X497400Y112060*
Y112462*
X497585Y112865*
X497954Y113133*
X498508Y113268*
X498877Y113133*
X499430Y112999*
X499799Y112731*
X499984Y112328*
Y111925*
X499799Y111523*
X499615Y111389*
X499246Y111254*
X496108Y115281D02*
X496293Y114878D01*
X496847Y114610*
X497769Y114475*
X498323*
X499246Y114610*
X499799Y114878*
X499984Y115281*
Y115549*
X499799Y115952*
X499246Y116220*
X498323Y116355*
X497769*
X496847Y116220*
X496293Y115952*
X496108Y115549*
X496108D02*
Y115281D01*
X484880Y108472D02*
X488756D01*
X484880D02*
Y109412D01*
X485065Y109815*
X485434Y110083*
X485803Y110217*
X486357Y110351*
X487280*
X487833Y110217*
X488202Y110083*
X488571Y109815*
X488756Y109412*
Y108472*
X485803Y111694D02*
X485619D01*
X485250Y111828*
X485065Y111962*
X484880Y112230*
Y112767*
X485065Y113036*
X485250Y113170*
X485619Y113304*
X485988*
X486357Y113170*
X486910Y112901*
X488756Y111559*
Y113438*
X479692Y188158D02*
Y184283D01*
X478752Y188158D02*
X480631D01*
X481839D02*
X482913Y184283D01*
X483987Y188158D02*
X482913Y184283D01*
X487074Y187605D02*
X486805Y187974D01*
X486403Y188158*
X485866*
X485463Y187974*
X485195Y187605*
Y187236*
X485329Y186866*
X485463Y186682*
X485732Y186497*
X486537Y186128*
X486805Y185944*
X486940Y185759*
X487074Y185390*
Y184836*
X486805Y184467*
X486403Y184283*
X485866*
X485463Y184467*
X485195Y184836*
X488416Y187236D02*
Y187420D01*
X488550Y187789*
X488684Y187974*
X488953Y188158*
X489490*
X489758Y187974*
X489892Y187789*
X490026Y187420*
Y187051*
X489892Y186682*
X489624Y186128*
X488282Y184283*
X490161*
X454717Y140197D02*
X458593D01*
X454717D02*
Y141405D01*
X454902Y141808*
X455087Y141942*
X455456Y142077*
X455825*
X456194Y141942*
X456378Y141808*
X456563Y141405*
Y140197*
Y141137D02*
X458593Y142077D01*
X454717Y143553D02*
Y145029D01*
X456194Y144224*
Y144627*
X456378Y144895*
X456563Y145029*
X457117Y145163*
X457486*
X458039Y145029*
X458408Y144761*
X458593Y144358*
Y143956*
X458408Y143553*
X458224Y143419*
X457855Y143284*
X454717Y146640D02*
Y148116D01*
X456194Y147311*
Y147714*
X456378Y147982*
X456563Y148116*
X457117Y148250*
X457486*
X458039Y148116*
X458408Y147848*
X458593Y147445*
Y147043*
X458408Y146640*
X458224Y146506*
X457855Y146371*
X439245Y153422D02*
X442014D01*
X442567Y153556*
X442936Y153824*
X443121Y154227*
Y154495*
X442936Y154898*
X442567Y155167*
X442014Y155301*
X439245*
X439799Y158119D02*
X439430Y157985D01*
X439245Y157582*
Y157314*
X439430Y156911*
X439984Y156643*
X440906Y156509*
X441829*
X442567Y156643*
X442936Y156911*
X443121Y157314*
Y157448*
X442936Y157851*
X442567Y158119*
X442014Y158253*
X441829*
X441275Y158119*
X440906Y157851*
X440722Y157448*
Y157314*
X440906Y156911*
X441275Y156643*
X441829Y156509*
X426060Y135550D02*
X429935D01*
X426060D02*
Y136758D01*
X426244Y137161*
X426429Y137295*
X426798Y137429*
X427167*
X427536Y137295*
X427721Y137161*
X427905Y136758*
Y135550*
Y136490D02*
X429935Y137429D01*
X426060Y138906D02*
Y140382D01*
X427536Y139577*
Y139979*
X427721Y140248*
X427905Y140382*
X428459Y140516*
X428828*
X429381Y140382*
X429751Y140114*
X429935Y139711*
Y139308*
X429751Y138906*
X429566Y138771*
X429197Y138637*
X426982Y141858D02*
X426798D01*
X426429Y141993*
X426244Y142127*
X426060Y142395*
Y142932*
X426244Y143201*
X426429Y143335*
X426798Y143469*
X427167*
X427536Y143335*
X428090Y143066*
X429935Y141724*
Y143603*
X427476Y182926D02*
Y179051D01*
Y182926D02*
X428416D01*
X428818Y182742*
X429087Y182372*
X429221Y182003*
X429355Y181450*
Y180527*
X429221Y179973*
X429087Y179604*
X428818Y179235*
X428416Y179051*
X427476*
X431234Y182926D02*
X430832Y182742D01*
X430697Y182372*
Y182003*
X430832Y181634*
X431100Y181450*
X431637Y181265*
X432040Y181081*
X432308Y180712*
X432442Y180342*
Y179789*
X432308Y179420*
X432174Y179235*
X431771Y179051*
X431234*
X430832Y179235*
X430697Y179420*
X430563Y179789*
Y180342*
X430697Y180712*
X430966Y181081*
X431369Y181265*
X431905Y181450*
X432174Y181634*
X432308Y182003*
Y182372*
X432174Y182742*
X431771Y182926*
X431234*
X416121Y142654D02*
X419997D01*
X416121D02*
Y143862D01*
X416306Y144264*
X416490Y144399*
X416859Y144533*
X417229*
X417598Y144399*
X417782Y144264*
X417967Y143862*
Y142654*
Y143593D02*
X419997Y144533D01*
X416121Y146412D02*
X416306Y146009D01*
X416675Y145875*
X417044*
X417413Y146009*
X417598Y146278*
X417782Y146814*
X417967Y147217*
X418336Y147485*
X418705Y147620*
X419259*
X419628Y147485*
X419812Y147351*
X419997Y146949*
Y146412*
X419812Y146009*
X419628Y145875*
X419259Y145741*
X418705*
X418336Y145875*
X417967Y146143*
X417782Y146546*
X417598Y147083*
X417413Y147351*
X417044Y147485*
X416675*
X416306Y147351*
X416121Y146949*
Y146412*
X401740Y182023D02*
Y178147D01*
Y182023D02*
X402679D01*
X403082Y181838*
X403350Y181469*
X403485Y181100*
X403619Y180546*
Y179624*
X403485Y179070*
X403350Y178701*
X403082Y178332*
X402679Y178147*
X401740*
X406437Y181469D02*
X406303Y181838D01*
X405901Y182023*
X405632*
X405229Y181838*
X404961Y181284*
X404827Y180362*
Y179439*
X404961Y178701*
X405229Y178332*
X405632Y178147*
X405766*
X406169Y178332*
X406437Y178701*
X406572Y179254*
Y179439*
X406437Y179993*
X406169Y180362*
X405766Y180546*
X405632*
X405229Y180362*
X404961Y179993*
X404827Y179439*
X397815Y306349D02*
Y302473D01*
Y306349D02*
X398754D01*
X399157Y306164*
X399425Y305795*
X399559Y305426*
X399694Y304872*
Y303950*
X399559Y303396*
X399425Y303027*
X399157Y302658*
X398754Y302473*
X397815*
X400902Y305610D02*
X401170Y305795D01*
X401573Y306349*
Y302473*
X404525Y306349D02*
X403183D01*
X403049Y304688*
X403183Y304872*
X403586Y305057*
X403989*
X404391Y304872*
X404660Y304503*
X404794Y303950*
X404660Y303580*
X404525Y303027*
X404257Y302658*
X403854Y302473*
X403452*
X403049Y302658*
X402915Y302842*
X402781Y303211*
G54D61*
X515174Y337488D02*
X511893D01*
X515174D02*
Y336693D01*
X515018Y336352*
X514706Y336125*
X514393Y336011*
X513924Y335897*
X513143*
X512674Y336011*
X512362Y336125*
X512049Y336352*
X511893Y336693*
Y337488*
X514706Y333284D02*
X515018Y333511D01*
X515174Y333852*
Y334307*
X515018Y334647*
X514706Y334875*
X514393*
X514081Y334761*
X513924Y334647*
X513768Y334420*
X513456Y333738*
X513299Y333511*
X513143Y333397*
X512831Y333284*
X512362*
X512049Y333511*
X511893Y333852*
Y334307*
X512049Y334647*
X512362Y334875*
X514393Y332147D02*
X514549D01*
X514862Y332034*
X515018Y331920*
X515174Y331693*
Y331238*
X515018Y331011*
X514862Y330897*
X514549Y330784*
X514237*
X513924Y330897*
X513456Y331125*
X511893Y332261*
Y330670*
X508846Y282748D02*
X505565D01*
X508846D02*
Y281953D01*
X508690Y281612*
X508377Y281385*
X508065Y281271*
X507596Y281157*
X506815*
X506346Y281271*
X506033Y281385*
X505721Y281612*
X505565Y281953*
Y282748*
X508377Y278544D02*
X508690Y278771D01*
X508846Y279112*
Y279566*
X508690Y279907*
X508377Y280135*
X508065*
X507752Y280021*
X507596Y279907*
X507440Y279680*
X507127Y278998*
X506971Y278771*
X506815Y278657*
X506502Y278544*
X506033*
X505721Y278771*
X505565Y279112*
Y279566*
X505721Y279907*
X506033Y280135*
X508221Y277521D02*
X508377Y277294D01*
X508846Y276953*
X505565*
X127016Y155413D02*
X123735D01*
X127016Y156209D02*
Y154618D01*
Y153595D02*
X123735Y152686D01*
X127016Y151777D02*
X123735Y152686D01*
X126548Y149163D02*
X126860Y149391D01*
X127016Y149732*
Y150186*
X126860Y150527*
X126548Y150754*
X126235*
X125923Y150641*
X125766Y150527*
X125610Y150300*
X125298Y149618*
X125141Y149391*
X124985Y149277*
X124673Y149163*
X124204*
X123891Y149391*
X123735Y149732*
Y150186*
X123891Y150527*
X124204Y150754*
X126391Y148141D02*
X126548Y147913D01*
X127016Y147572*
X123735*
X78765Y400642D02*
X82046D01*
X78765D02*
Y402119D01*
X80328Y400642D02*
Y401551D01*
X78765Y404278D02*
X80953Y403142D01*
Y404846*
X78765Y404278D02*
X82046D01*
X93765Y400642D02*
X97046D01*
X93765D02*
Y402119D01*
X95328Y400642D02*
Y401551D01*
X93765Y404619D02*
Y403483D01*
X95171Y403369*
X95015Y403483*
X94859Y403824*
Y404164*
X95015Y404505*
X95328Y404733*
X95796Y404846*
X96109Y404733*
X96578Y404619*
X96890Y404392*
X97046Y404051*
Y403710*
X96890Y403369*
X96734Y403255*
X96421Y403142*
X211941Y169930D02*
Y173211D01*
Y169930D02*
X210464D01*
X211941Y171492D02*
X211032D01*
X209214Y169930D02*
X207964D01*
X208645Y171180*
X208305*
X208077Y171336*
X207964Y171492*
X207850Y171961*
Y172273*
X207964Y172742*
X208191Y173055*
X208532Y173211*
X208873*
X209214Y173055*
X209327Y172898*
X209441Y172586*
X226448Y280058D02*
X223166D01*
X226448D02*
Y279035D01*
X226291Y278694*
X226135Y278580*
X225823Y278467*
X225354*
X225041Y278580*
X224885Y278694*
X224729Y279035*
Y280058*
X226448Y277444D02*
X223166D01*
X226448D02*
Y276421D01*
X226291Y276080*
X226135Y275967*
X225823Y275853*
X225510*
X225198Y275967*
X225041Y276080*
X224885Y276421*
Y277444D02*
Y276421D01*
X224729Y276080*
X224573Y275967*
X224260Y275853*
X223791*
X223479Y275967*
X223323Y276080*
X223166Y276421*
Y277444*
X225823Y274830D02*
X225979Y274603D01*
X226448Y274262*
X223166*
X241279Y137952D02*
Y135452D01*
X241165Y134983*
X241051Y134827*
X240824Y134670*
X240597*
X240369Y134827*
X240256Y134983*
X240142Y135452*
Y135764*
X243892Y137952D02*
X242756Y134670D01*
X242301Y137952D02*
X243892D01*
X255159Y225272D02*
X257659D01*
X258127Y225158*
X258284Y225045*
X258440Y224817*
Y224590*
X258284Y224363*
X258127Y224249*
X257659Y224136*
X257346*
X255159Y226863D02*
X255315Y226522D01*
X255627Y226408*
X255940*
X256252Y226522*
X256409Y226749*
X256565Y227204*
X256721Y227545*
X257034Y227772*
X257346Y227886*
X257815*
X258127Y227772*
X258284Y227658*
X258440Y227317*
Y226863*
X258284Y226522*
X258127Y226408*
X257815Y226295*
X257346*
X257034Y226408*
X256721Y226636*
X256565Y226976*
X256409Y227431*
X256252Y227658*
X255940Y227772*
X255627*
X255315Y227658*
X255159Y227317*
Y226863*
X250431Y152267D02*
Y148986D01*
Y152267D02*
X251453D01*
X251794Y152111*
X251908Y151954*
X252021Y151642*
Y151329*
X251908Y151017*
X251794Y150861*
X251453Y150704*
X250431*
X251226D02*
X252021Y148986D01*
X253044Y150236D02*
X254408D01*
Y150548*
X254294Y150861*
X254181Y151017*
X254181D02*
X253953Y151173D01*
X253612*
X253385Y151017*
X253158Y150704*
X253044Y150236*
Y149923*
X253158Y149454*
X253385Y149142*
X253612Y148986*
X253953*
X254181Y149142*
X254181D02*
X254408Y149454D01*
X256340Y152267D02*
X256112D01*
X255885Y152111*
X255771Y151642*
Y148986*
X255431Y151173D02*
X256226D01*
X257476Y149298D02*
X257362Y149142D01*
X257476Y148986*
X257590Y149142*
X257476Y149298*
X258612Y152267D02*
Y148986D01*
Y152267D02*
X259408D01*
X259749Y152111*
X259976Y151798*
X260090Y151486*
X260203Y151017*
Y150236*
X260090Y149767*
X259976Y149454*
X259749Y149142*
X259408Y148986*
X258612*
X261226Y150236D02*
X262590D01*
Y150548*
X262476Y150861*
X262362Y151017*
X262135Y151173*
X261794*
X261567Y151017*
X261340Y150704*
X261226Y150236*
Y149923*
X261340Y149454*
X261567Y149142*
X261794Y148986*
X262135*
X262362Y149142*
X262590Y149454*
X264862Y150704D02*
X264749Y151017D01*
X264408Y151173*
X264067*
X263726Y151017*
X263612Y150704*
X263726Y150392*
X263953Y150236*
X264521Y150079*
X264749Y149923*
X264862Y149611*
Y149454*
X264749Y149142*
X264408Y148986*
X264067*
X263726Y149142*
X263612Y149454*
X265999Y149298D02*
X265885Y149142D01*
X265999Y148986*
X266112Y149142*
X265999Y149298*
X267135Y150861D02*
X269181D01*
X267135Y149923D02*
X269181D01*
X270203Y152267D02*
Y149923D01*
X270317Y149454*
X270544Y149142*
X270885Y148986*
X271112*
X271453Y149142*
X271681Y149454*
X271681D02*
X271794Y149923D01*
Y152267*
X272931Y151486D02*
Y151642D01*
X272931D02*
X273044Y151954D01*
X273158Y152111*
X273385Y152267*
X273840*
X274067Y152111*
X274181Y151954*
X274181D02*
X274294Y151642D01*
Y151329*
X274181Y151017*
X274181D02*
X273953Y150548D01*
X272817Y148986*
X274408*
X227023Y333728D02*
X230304D01*
X227023D02*
Y334751D01*
X227179Y335091*
X227336Y335205*
X227648Y335319*
X227961*
X228273Y335205*
X228429Y335091*
X228586Y334751*
Y333728*
Y334523D02*
X230304Y335319D01*
X229054Y336341D02*
Y337705D01*
X228742*
X228429Y337591*
X228273Y337478*
X228117Y337251*
Y336910*
X228273Y336682*
X228586Y336455*
X229054Y336341*
X229367*
X229836Y336455*
X230148Y336682*
X230304Y336910*
Y337251*
X230148Y337478*
X229836Y337705*
X227023Y339637D02*
Y339410D01*
X227179Y339182*
X227648Y339069*
X230304*
X228117Y338728D02*
Y339523D01*
X229992Y340773D02*
X230148Y340660D01*
X230304Y340773*
X230148Y340887*
X229992Y340773*
X227023Y341910D02*
X230304D01*
X227023D02*
Y342705D01*
X227179Y343046*
X227492Y343273*
X227804Y343387*
X228273Y343501*
X229054*
X229523Y343387*
X229836Y343273*
X230148Y343046*
X230304Y342705*
Y341910*
X229054Y344523D02*
Y345887D01*
X228742*
X228429Y345773*
X228273Y345660*
X228117Y345432*
Y345091*
X228273Y344864*
X228586Y344637*
X229054Y344523*
X229367*
X229836Y344637*
X230148Y344864*
X230304Y345091*
Y345432*
X230148Y345660*
X229836Y345887*
X228586Y348160D02*
X228273Y348046D01*
X228117Y347705*
Y347364*
X228273Y347023*
X228586Y346910*
X228898Y347023*
X229054Y347251*
X229211Y347819*
X229367Y348046*
X229679Y348160*
X229836*
X230148Y348046*
X230304Y347705*
Y347364*
X230148Y347023*
X229836Y346910*
X229992Y349296D02*
X230148Y349182D01*
X230304Y349296*
X230148Y349410*
X229992Y349296*
X228429Y350432D02*
Y352478D01*
X229367Y350432D02*
Y352478D01*
X227023Y353501D02*
X229367D01*
X229836Y353614*
X230148Y353841*
X230304Y354182*
Y354410*
X230148Y354751*
X229836Y354978*
X229367Y355091*
X227023*
X228117Y357591D02*
X228586Y357478D01*
X228898Y357251*
X229054Y356910*
Y356796*
X228898Y356455*
X228586Y356228*
X228117Y356114*
X227961*
X227492Y356228*
X227179Y356455*
X227023Y356796*
Y356910*
X227179Y357251*
X227492Y357478*
X228117Y357591*
X228898*
X229679Y357478*
X230148Y357251*
X230304Y356910*
Y356682*
X230148Y356341*
X229836Y356228*
X468858Y365250D02*
Y361969D01*
X470449Y365250D02*
Y361969D01*
X468858Y363687D02*
X470449D01*
X471472Y364625D02*
X471699Y364781D01*
X472040Y365250*
Y361969*
X134213Y168399D02*
Y165118D01*
X135804Y168399D02*
Y165118D01*
X134213Y166837D02*
X135804D01*
X136940Y167618D02*
Y167774D01*
X137054Y168087*
X137167Y168243*
X137394Y168399*
X137849*
X138076Y168243*
X138190Y168087*
X138304Y167774*
Y167462*
X138190Y167149*
X137963Y166681*
X136826Y165118*
X138417*
G54D62*
X135341Y410984D02*
Y410234D01*
X135307Y410094*
X135273Y410047*
X135205Y410000*
X135136*
X135068Y410047*
X135034Y410094*
X135000Y410234*
Y410328*
X135648Y410797D02*
X135716Y410844D01*
X135818Y410984*
Y410000*
X146215Y114857D02*
Y115607D01*
X146215D02*
X146249Y115747D01*
X146283Y115794*
X146351Y115841*
X146419*
X146487Y115794*
X146521Y115747*
X146555Y115607*
Y115513*
X145840Y114857D02*
X145465D01*
X145465D02*
X145669Y115232D01*
X145567*
X145499Y115279*
X145465Y115325*
X145465D02*
X145430Y115466D01*
Y115560*
X145465Y115700*
X145465D02*
X145533Y115794D01*
X145635Y115841*
X145737*
X145840Y115794*
X145840D02*
X145874Y115747D01*
X145908Y115654*
X178907Y243508D02*
X179891D01*
X178907D02*
Y243815D01*
X178954Y243917*
X179001Y243951*
X179094Y243985*
X179235*
X179329Y243951*
X179376Y243917*
X179423Y243815*
Y243508*
X179048Y244769D02*
X178954Y244701D01*
X178907Y244599*
Y244462*
X178954Y244360*
X179048Y244292*
X179141*
X179235Y244326*
X179282Y244360*
X179329Y244428*
X179423Y244633*
X179469Y244701*
X179516Y244735*
X179610Y244769*
X179751*
X179844Y244701*
X179891Y244599*
Y244462*
X179844Y244360*
X179751Y244292*
X179094Y245076D02*
X179048Y245144D01*
X178907Y245246*
X179891*
X190341Y410984D02*
Y410234D01*
X190307Y410094*
X190273Y410047*
X190205Y410000*
X190136*
X190068Y410047*
X190034Y410094*
X190000Y410234*
Y410328*
X190682Y410750D02*
Y410797D01*
X190716Y410891*
X190750Y410938*
X190750D02*
X190818Y410984D01*
X190955*
X191023Y410938*
X191023D02*
X191057Y410891D01*
X191091Y410797*
Y410703*
X191057Y410609*
X190989Y410469*
X190648Y410000*
X191125*
X223143Y115213D02*
Y115963D01*
X223177Y116103*
X223211Y116150*
X223279Y116197*
X223347*
X223415Y116150*
X223450Y116103*
X223484Y115963*
Y115869*
X222495Y115213D02*
X222836Y115869D01*
X222325*
X222495Y115213D02*
Y116197D01*
X222291Y209088D02*
Y208385D01*
X222325Y208244*
X222393Y208150*
X222496Y208104*
X222564*
X222666Y208150*
X222734Y208244*
X222768Y208385*
Y209088*
X223143D02*
X223518D01*
X223314Y208713*
X223416*
X223484Y208666*
X223518Y208619*
X223552Y208479*
Y208385*
X223518Y208244*
X223450Y208150*
X223348Y208104*
X223246*
X223143Y208150*
X223109Y208197*
X223075Y208291*
X279348Y405628D02*
Y404878D01*
X279314Y404737*
X279280Y404690*
X279212Y404643*
X279143*
X279143D02*
X279075Y404690D01*
X279041Y404737*
X279007Y404878*
Y404971*
X280064Y405487D02*
X280030Y405581D01*
X279928Y405628*
X279859*
X279757Y405581*
X279689Y405440*
X279655Y405206*
Y404971*
X279689Y404784*
X279757Y404690*
X279859Y404643*
X279893*
X279893D02*
X279996Y404690D01*
X280064Y404784*
X280098Y404925*
Y404971*
X280064Y405112*
X279996Y405206*
X279893Y405253*
X279893D02*
X279859D01*
X279757Y405206*
X279689Y405112*
X279655Y404971*
X464730Y124004D02*
Y124754D01*
X464764Y124894*
X464798Y124941*
X464866Y124988*
X464934*
X465002Y124941*
X465036Y124894*
X465036D02*
X465071Y124754D01*
Y124660*
X463980Y124004D02*
X464321D01*
X464355Y124426*
X464321Y124379*
X464218Y124332*
X464116*
X464014Y124379*
X463946Y124472*
X463946D02*
X463911Y124613D01*
X463911D02*
X463946Y124707D01*
X463980Y124847*
X463980D02*
X464048Y124941D01*
X464150Y124988*
X464252*
X464355Y124941*
X464389Y124894*
X464423Y124801*
X474224Y150339D02*
X473521D01*
X473380Y150304*
X473287Y150236*
X473240Y150134*
Y150066*
X473287Y149964*
X473380Y149895*
X473521Y149861*
X474224*
X474037Y149554D02*
X474083Y149486D01*
X474224Y149384*
X473240*
X473990Y149043D02*
X474037D01*
X474130Y149009*
X474177Y148975*
X474224Y148907*
Y148770*
X474177Y148702*
X474130Y148668*
X474037Y148634*
X473943*
X473849Y148668*
X473708Y148736*
X473240Y149077*
Y148600*
G54D63*
X266825Y329389D02*
X268891D01*
X266825Y330516D02*
X268202Y329389D01*
X267710Y329792D02*
X268891Y330516D01*
X266825Y332288D02*
Y331483D01*
X267710Y331402*
X267612Y331483*
X267513Y331724*
Y331966*
X267612Y332208*
X267809Y332369*
X268104Y332449*
X268301Y332369*
X268596Y332288*
X268793Y332127*
X268891Y331885*
Y331644*
X268793Y331402*
X268695Y331322*
X268498Y331241*
X295720Y329023D02*
X297787D01*
X295720Y330151D02*
X297098Y329023D01*
X296606Y329426D02*
X297787Y330151D01*
X295720Y331681D02*
X297098Y330875D01*
Y332083*
X295720Y331681D02*
X297787D01*
X324250Y329429D02*
X326316D01*
X324250Y330557D02*
X325627Y329429D01*
X325135Y329832D02*
X326316Y330557D01*
X324250Y331442D02*
Y332328D01*
X325037Y331845*
Y332087*
X325135Y332248*
X325234Y332328*
X325529Y332409*
X325726*
X326021Y332328*
X326218Y332167*
X326316Y331926*
Y331684*
X326218Y331442*
X326120Y331362*
X325923Y331281*
X352413Y329429D02*
X354480D01*
X352413Y330557D02*
X353791Y329429D01*
X353299Y329832D02*
X354480Y330557D01*
X352906Y331362D02*
X352807D01*
X352610Y331442*
X352512Y331523*
X352413Y331684*
Y332006*
X352512Y332167*
X352610Y332248*
X352807Y332328*
X353004*
X353201Y332248*
X353496Y332087*
X354480Y331281*
Y332409*
X379846Y330157D02*
X381913D01*
X379846Y331285D02*
X381224Y330157D01*
X380732Y330560D02*
X381913Y331285D01*
X380239Y332010D02*
X380141Y332171D01*
X379846Y332412*
X381913*
X249883Y311851D02*
X249687Y311770D01*
X249490Y311609*
X249391Y311448*
Y311126*
X249490Y310965*
X249687Y310804*
X249883Y310723*
X250179Y310643*
X250671*
X250966Y310723*
X251163Y310804*
X251360Y310965*
X251458Y311126*
Y311448*
X251360Y311609*
X251163Y311770*
X250966Y311851*
X249785Y312575D02*
X249687Y312736D01*
X249391Y312978*
X251458*
X249883Y313783D02*
X249785D01*
X249588Y313864*
X249490Y313944*
X249391Y314105*
Y314428*
X249490Y314589*
X249588Y314669*
X249785Y314750*
X249982*
X250179Y314669*
X250474Y314508*
X251458Y313703*
Y314830*
G74*
X0Y0D02*
M02*
