M48
;FILE_FORMAT=2:4
INCH,LZ
FMAT,2
ICI,OFF
;TYPE=PLATED
T1C.0315
T2C.035
T3C.03543
T4C.037
T5C.039
T6C.03937
T7C.041
T8C.047
T9C.04724
T10C.06299
T11C.06693
;TYPE=NON_PLATED
T12C.11
%
M72
G90
G93X0Y0
T1C.0315F0S0
X023802Y028576
X017808Y037472
X034318Y028667
T2C.035F0S0
X011364Y013762
X010774Y016321
X019487Y025056
X019487Y027556
X021287Y027556
X021287Y025056
T3C.03543F0S0
X025314Y011767
X026314Y011767
X027314Y011767
X026314Y012767
X025314Y012767
X027314Y012767
X027544Y023714
X026544Y023714
X027544Y024714
X026544Y024714
X027544Y025714
X026544Y025714
T4C.037F0S0
X02575Y0185
X02575Y025
X02425Y02625
X0255Y02725
X02475Y0275
X0225Y028
X024Y0365
X025Y0365
X02425Y039
X028Y0325
X026Y03
X028Y0295
X0285Y025
X0295Y02425
X0285Y024
X029Y02325
X0325Y0135
X034Y0135
X03475Y0155
X03525Y0175
X03375Y018
X03425Y0185
X03125Y01875
X034Y01975
X03525Y02025
X034Y021
X03175Y02125
X03525Y0215
X03175Y02325
X03575Y0235
X03325Y02375
X034Y024
X03575Y025
X03125Y02575
X032Y02575
X0355Y0265
X0345Y02725
X03175Y02725
X03475Y0295
X032Y034
X03325Y034
X03225Y035
X039Y0355
X03625Y0335
X04075Y0295
X0365Y026
X03725Y0255
X03725Y02425
X03725Y02275
X03875Y0215
X0365Y01975
X03725Y01975
X0375Y019
X0365Y0135
X038Y0135
X0405Y0135
X042Y0135
X045Y0135
X044Y0135
X043Y01575
X045Y019
X04175Y02325
X04175Y0265
X04175Y035
X0415Y0365
X046559Y032699
X046559Y031699
X046559Y030699
X046559Y029699
X045926Y027225
X045926Y026225
X045926Y025225
X045926Y024225
X045926Y023225
X045926Y022225
X045926Y021225
X045926Y020225
X047Y01775
X047Y0125
X048926Y020225
X048926Y021225
X048926Y022225
X048926Y023225
X048926Y024225
X048926Y025225
X048926Y026225
X048926Y027225
X049559Y029699
X049559Y030699
X049559Y031699
X049559Y032699
T5C.039F0S0
X047674Y013534
X047674Y014534
X047674Y015534
X047674Y016534
T6C.03937F0S0
X013855Y023878
X015824Y023878
X011808Y035453
X017871Y035453
X029766Y033088
X032656Y033052
X029766Y032088
X032656Y032052
X035509Y032088
X038325Y032088
X041068Y032125
X038325Y033088
X035509Y033088
X041068Y033125
T7C.041F0S0
X020113Y029984
X020113Y030984
X020113Y031984
T8C.047F0S0
X022229Y01581
X022229Y01681
X022229Y01781
X022229Y01881
X022229Y01981
X028229Y01881
X028229Y01781
X028229Y01681
X028229Y01581
T9C.04724F0S0
X029766Y037088
X029766Y039088
X035509Y039088
X038325Y039088
X032656Y039052
X038325Y037088
X035509Y037088
X032656Y037052
X041068Y037125
X041068Y039125
T10C.06299F0S0
X011258Y020116
X020258Y020116
T11C.06693F0S0
X011703Y010954
X013671Y010954
X017427Y01099
X016453Y04163
X014484Y04163
X019984Y04163
X021953Y04163
X019396Y01099
X021364Y01099
X031743Y011869
X03568Y011869
X033712Y011869
X028885Y041094
X030853Y041094
X032822Y041094
X03479Y041094
X036759Y041094
X038727Y041094
X040696Y041094
X042664Y041094
X039617Y011869
X037649Y011869
X041586Y011869
X045523Y011869
X043554Y011869
T12C.11F0S0
X013421Y016512
X046886Y036197
M30
