*
*
G04 PADS VX.2.7 Build Number: 15549477 generated Gerber (RS-274-X) file*
G04 PC Version=2.1*
*
%IN "IC-Shelter PCB.pcb"*%
*
%MOIN*%
*
%FSLAX35Y35*%
*
*
*
*
G04 PC Standard Apertures*
*
*
G04 Thermal Relief Aperture macro.*
%AMTER*
1,1,$1,0,0*
1,0,$1-$2,0,0*
21,0,$3,$4,0,0,45*
21,0,$3,$4,0,0,135*
%
*
*
G04 Annular Aperture macro.*
%AMANN*
1,1,$1,0,0*
1,0,$2,0,0*
%
*
*
G04 Odd Aperture macro.*
%AMODD*
1,1,$1,0,0*
1,0,$1-0.005,0,0*
%
*
*
G04 PC Custom Aperture Macros*
*
*
*
*
*
*
G04 PC Aperture Table*
*
%ADD010C,0.001*%
%ADD020C,0.07*%
%ADD064R,0.07X0.07*%
%ADD065C,0.12811*%
%ADD066R,0.075X0.075*%
%ADD067C,0.075*%
%ADD068R,0.09X0.085*%
%ADD069C,0.08874*%
%ADD070C,0.08*%
%ADD071R,0.06X0.07*%
%ADD072R,0.085X0.07*%
%ADD073R,0.08X0.21*%
%ADD074C,0.078*%
%ADD075R,0.06906X0.06906*%
%ADD076C,0.06906*%
%ADD077R,0.07299X0.03362*%
%ADD078R,0.04543X0.06709*%
%ADD079C,0.08087*%
%ADD080R,0.05331X0.0789*%
%ADD081C,0.06118*%
%ADD082R,0.08087X0.0474*%
%ADD083R,0.08087X0.04937*%
%ADD084R,0.05528X0.06709*%
%ADD085R,0.06709X0.05528*%
%ADD086R,0.07102X0.03362*%
%ADD087R,0.07693X0.12417*%
%ADD088R,0.0789X0.05331*%
%ADD089R,0.06709X0.04543*%
%ADD090O,0.03362X0.08087*%
%ADD091O,0.03165X0.07693*%
%ADD092O,0.07693X0.03165*%
%ADD093R,0.09661X0.07102*%
%ADD094R,0.04937X0.05724*%
%ADD095R,0.05724X0.04937*%
*
*
*
*
G04 PC Circuitry*
G04 Layer Name IC-Shelter PCB.pcb - circuitry*
%LPD*%
*
*
G04 PC Custom Flashes*
G04 Layer Name IC-Shelter PCB.pcb - flashes*
%LPD*%
*
*
G04 PC Circuitry*
G04 Layer Name IC-Shelter PCB.pcb - circuitry*
%LPD*%
*
G54D10*
G01X496378Y285689D02*
X503071D01*
Y427087*
X100000*
Y285689*
X106693*
Y241398*
X100000*
Y100000*
X503071*
Y241398*
X496378*
Y285689*
G54D20*
X465593Y316988D03*
Y306988D03*
Y296988D03*
X495593D03*
Y306988D03*
Y316988D03*
Y326988D03*
X459265Y262248D03*
Y252248D03*
Y242248D03*
Y232248D03*
Y222248D03*
Y212248D03*
Y202248D03*
X489265D03*
Y212248D03*
Y222248D03*
Y232248D03*
Y242248D03*
Y252248D03*
Y262248D03*
Y272248D03*
X107735Y163209D03*
X113641Y137618D03*
X476740Y165339D03*
Y155339D03*
Y145339D03*
Y135339D03*
G54D64*
X465593Y326988D03*
X459265Y272248D03*
G54D65*
X144843Y416299D03*
X164528D03*
X136713Y109542D03*
X117028D03*
X199843Y416299D03*
X219528D03*
X213641Y109898D03*
X193956D03*
X174271D03*
X288850Y410943D03*
X308535D03*
X328220D03*
X347905D03*
X367590D03*
X387275D03*
X406960D03*
X426645D03*
X455228Y118689D03*
X435543D03*
X415858D03*
X396173D03*
X376488D03*
X356803D03*
X337118D03*
X317433D03*
X202583Y201164D03*
X112583D03*
G54D66*
X201133Y299842D03*
G54D67*
Y309842D03*
Y319842D03*
G54D68*
Y363382D03*
Y343882D03*
X266989Y203823D03*
Y184323D03*
G54D69*
X138553Y238783D03*
X158238D03*
X118080Y354531D03*
X178710D03*
X297661Y370883D03*
Y390883D03*
X326557Y370517D03*
Y390517D03*
X355086Y370883D03*
Y390883D03*
X383250Y370883D03*
Y390883D03*
X410682Y371249D03*
Y391249D03*
G54D70*
X222291Y158104D03*
Y168104D03*
Y178104D03*
Y188104D03*
Y198104D03*
X282291Y158104D03*
Y188104D03*
Y178104D03*
Y168104D03*
G54D71*
X259397Y306894D03*
Y315894D03*
X341237Y159666D03*
Y168666D03*
X381895Y157921D03*
Y166921D03*
X461230Y166236D03*
Y157236D03*
X420006Y159386D03*
Y168386D03*
G54D72*
X235115Y170363D03*
Y156863D03*
X250843Y169997D03*
Y156497D03*
X110000Y403250D03*
Y416750D03*
X125000Y403250D03*
Y416750D03*
G54D73*
X383363Y197110D03*
Y231610D03*
G54D74*
X212866Y250558D03*
Y275558D03*
X194866D03*
Y250558D03*
G54D75*
X253142Y117670D03*
X275440Y237136D03*
G54D76*
X253142Y127670D03*
X263142Y117670D03*
Y127670D03*
X273142Y117670D03*
Y127670D03*
X265440Y237136D03*
X275440Y247136D03*
X265440D03*
X275440Y257136D03*
X265440D03*
G54D77*
X447118Y333297D03*
Y338297D03*
Y343297D03*
Y348297D03*
Y353297D03*
Y358297D03*
Y363297D03*
Y368297D03*
X425858D03*
Y363297D03*
Y358297D03*
Y353297D03*
Y348297D03*
Y343297D03*
Y338297D03*
Y333297D03*
G54D78*
X445914Y288843D03*
X453788D03*
X446971Y309342D03*
X454845D03*
X446273Y300024D03*
X454147D03*
X447571Y319508D03*
X455445D03*
X441461Y264738D03*
X449335D03*
X440424Y274779D03*
X448298D03*
X440424Y254044D03*
X448298D03*
X440424Y244492D03*
X448298D03*
X440424Y203723D03*
X448298D03*
X439958Y234009D03*
X447832D03*
X439958Y223292D03*
X447832D03*
X439958Y213973D03*
X447832D03*
X431970Y223176D03*
X424096D03*
Y203337D03*
X431970D03*
X423966Y244632D03*
X431840D03*
X423966Y234187D03*
X431840D03*
X423707Y213062D03*
X431581D03*
X423183Y264216D03*
X431057D03*
X422663Y274302D03*
X430537D03*
X424488Y253771D03*
X432362D03*
X432292Y192384D03*
X440166D03*
X153642Y383230D03*
X161516D03*
X238123Y226227D03*
X245997D03*
X238515Y236822D03*
X246389D03*
X245493Y202402D03*
X237619D03*
X238690Y256774D03*
X246564D03*
X238453Y246096D03*
X246327D03*
X238398Y268268D03*
X246272D03*
X246328Y338705D03*
X254202D03*
X246328Y353876D03*
X254202D03*
X263520Y329087D03*
X271394D03*
X263520Y373999D03*
X271394D03*
X263781Y351021D03*
X271655D03*
X263781Y362249D03*
X271655D03*
X271353Y385423D03*
X263479D03*
X271916Y340054D03*
X264042D03*
G54D79*
X297661Y320883D03*
Y330883D03*
X326557Y320517D03*
Y330517D03*
X355086Y320883D03*
Y330883D03*
X383250Y320883D03*
Y330883D03*
X410682Y321249D03*
Y331249D03*
G54D80*
X171468Y396331D03*
X159657D03*
X245752Y397040D03*
X257563D03*
X244816Y408360D03*
X256627D03*
X245149Y421000D03*
X256960D03*
X298013Y305525D03*
X286202D03*
X325622Y303799D03*
X313811D03*
X318343Y180052D03*
X330154D03*
X354568Y305305D03*
X342757D03*
X359338Y179791D03*
X371149D03*
X381871Y305305D03*
X370060D03*
X436428Y181357D03*
X424617D03*
X398814Y180454D03*
X410625D03*
X407774Y304780D03*
X395962D03*
G54D81*
X178079Y374719D03*
X238018Y285760D03*
X343181Y286675D03*
G54D82*
X195389Y386958D03*
X208967Y388003D03*
X234017Y192027D03*
X249380Y191661D03*
X251529Y371030D03*
G54D83*
X195389Y399163D03*
X208967Y400207D03*
X234017Y179822D03*
X249380Y179456D03*
X251529Y383235D03*
G54D84*
X207130Y236012D03*
X200043D03*
X236718Y339468D03*
X229631D03*
X237240Y354090D03*
X230153D03*
X323325Y199115D03*
X330411D03*
X323408Y207587D03*
X330494D03*
X323462Y286474D03*
X330549D03*
X323795Y277991D03*
X330882D03*
G54D85*
X218106Y321924D03*
Y314838D03*
X218367Y296821D03*
Y303907D03*
X402316Y224965D03*
Y232051D03*
X402474Y203172D03*
Y196085D03*
G54D86*
X240486Y369632D03*
Y374632D03*
Y379632D03*
Y384632D03*
X219226D03*
Y379632D03*
Y374632D03*
Y369632D03*
G54D87*
X236645Y322149D03*
Y303646D03*
G54D88*
X295311Y164887D03*
Y176698D03*
X486449Y117425D03*
Y105614D03*
G54D89*
X294742Y205744D03*
Y197870D03*
X301336Y185780D03*
Y193654D03*
X305798Y135102D03*
Y142976D03*
X337379Y142324D03*
Y150198D03*
X349355Y135617D03*
Y143491D03*
X360812Y205002D03*
Y212876D03*
X377920Y141111D03*
Y148985D03*
X389811Y135324D03*
Y143198D03*
X497677Y116762D03*
Y108888D03*
X456286Y140851D03*
Y148725D03*
X427628Y136203D03*
Y144077D03*
X417690Y141763D03*
Y149637D03*
G54D90*
X318337Y142526D03*
X328337D03*
Y168511D03*
X318337D03*
X359668Y142526D03*
X369668D03*
Y168511D03*
X359668D03*
X399537Y142526D03*
X409537D03*
Y168511D03*
X399537D03*
X435814Y143409D03*
X445814D03*
Y169393D03*
X435814D03*
G54D91*
X310477Y219441D03*
X313627D03*
X316776D03*
X319926D03*
X323076D03*
X326225D03*
X329375D03*
X332524D03*
X335674D03*
X338824D03*
X341973D03*
Y265504D03*
X338824D03*
X335674D03*
X332524D03*
X329375D03*
X326225D03*
X323076D03*
X319926D03*
X316776D03*
X313627D03*
X310477D03*
G54D92*
X349257Y226725D03*
Y229874D03*
Y233024D03*
Y236174D03*
Y239323D03*
Y242473D03*
Y245622D03*
Y248772D03*
Y251922D03*
Y255071D03*
Y258221D03*
X303194D03*
Y255071D03*
Y251922D03*
Y248772D03*
Y245622D03*
Y242473D03*
Y239323D03*
Y236174D03*
Y233024D03*
Y229874D03*
Y226725D03*
G54D93*
X476949Y186590D03*
X493091D03*
G54D94*
X273799Y163892D03*
X265925D03*
X269862Y156018D03*
G54D95*
X215398Y356983D03*
Y349109D03*
X223272Y353046D03*
X0Y0D02*
M02*
