*
*
G04 PADS VX.2.7 Build Number: 15549477 generated Gerber (RS-274-X) file*
G04 PC Version=2.1*
*
%IN "IC-Shelter PCB.pcb"*%
*
%MOIN*%
*
%FSLAX35Y35*%
*
*
*
*
G04 PC Standard Apertures*
*
*
G04 Thermal Relief Aperture macro.*
%AMTER*
1,1,$1,0,0*
1,0,$1-$2,0,0*
21,0,$3,$4,0,0,45*
21,0,$3,$4,0,0,135*
%
*
*
G04 Annular Aperture macro.*
%AMANN*
1,1,$1,0,0*
1,0,$2,0,0*
%
*
*
G04 Odd Aperture macro.*
%AMODD*
1,1,$1,0,0*
1,0,$1-0.005,0,0*
%
*
*
G04 PC Custom Aperture Macros*
*
*
*
*
*
*
G04 PC Aperture Table*
*
%ADD010C,0.001*%
%ADD011R,0.06299X0.02362*%
%ADD012R,0.03543X0.05709*%
%ADD018R,0.08X0.075*%
%ADD021R,0.05X0.06*%
%ADD022R,0.075X0.06*%
%ADD023R,0.07X0.2*%
%ADD028R,0.04331X0.0689*%
%ADD030R,0.07087X0.0374*%
%ADD031R,0.07087X0.03937*%
%ADD032R,0.04528X0.05709*%
%ADD033R,0.05709X0.04528*%
%ADD034R,0.06102X0.02362*%
%ADD035R,0.06299X0.11024*%
%ADD036R,0.0689X0.04331*%
%ADD037R,0.05709X0.03543*%
%ADD039O,0.02165X0.06693*%
%ADD040O,0.06693X0.02165*%
%ADD041R,0.08661X0.06102*%
%ADD042R,0.03937X0.04724*%
%ADD043R,0.04724X0.03937*%
%ADD096O,0.02362X0.07087*%
*
*
*
*
G04 PC Circuitry*
G04 Layer Name IC-Shelter PCB.pcb - circuitry*
%LPD*%
*
*
G04 PC Custom Flashes*
G04 Layer Name IC-Shelter PCB.pcb - flashes*
%LPD*%
*
*
G04 PC Circuitry*
G04 Layer Name IC-Shelter PCB.pcb - circuitry*
%LPD*%
*
G54D10*
G01X496378Y285689D02*
X503071D01*
Y427087*
X100000*
Y285689*
X106693*
Y241398*
X100000*
Y100000*
X503071*
Y241398*
X496378*
Y285689*
G54D11*
X447118Y333297D03*
Y338297D03*
Y343297D03*
Y348297D03*
Y353297D03*
Y358297D03*
Y363297D03*
Y368297D03*
X425858D03*
Y363297D03*
Y358297D03*
Y353297D03*
Y348297D03*
Y343297D03*
Y338297D03*
Y333297D03*
G54D12*
X445914Y288843D03*
X453788D03*
X446971Y309342D03*
X454845D03*
X446273Y300024D03*
X454147D03*
X447571Y319508D03*
X455445D03*
X441461Y264738D03*
X449335D03*
X440424Y274779D03*
X448298D03*
X440424Y254044D03*
X448298D03*
X440424Y244492D03*
X448298D03*
X440424Y203723D03*
X448298D03*
X439958Y234009D03*
X447832D03*
X439958Y223292D03*
X447832D03*
X439958Y213973D03*
X447832D03*
X431970Y223176D03*
X424096D03*
Y203337D03*
X431970D03*
X423966Y244632D03*
X431840D03*
X423966Y234187D03*
X431840D03*
X423707Y213062D03*
X431581D03*
X423183Y264216D03*
X431057D03*
X422663Y274302D03*
X430537D03*
X424488Y253771D03*
X432362D03*
X432292Y192384D03*
X440166D03*
X153642Y383230D03*
X161516D03*
X238123Y226227D03*
X245997D03*
X238515Y236822D03*
X246389D03*
X245493Y202402D03*
X237619D03*
X238690Y256774D03*
X246564D03*
X238453Y246096D03*
X246327D03*
X238398Y268268D03*
X246272D03*
X246328Y338705D03*
X254202D03*
X246328Y353876D03*
X254202D03*
X263520Y329087D03*
X271394D03*
X263520Y373999D03*
X271394D03*
X263781Y351021D03*
X271655D03*
X263781Y362249D03*
X271655D03*
X271353Y385423D03*
X263479D03*
X271916Y340054D03*
X264042D03*
G54D18*
X201133Y363382D03*
Y343882D03*
X266989Y203823D03*
Y184323D03*
G54D21*
X259397Y306894D03*
Y315894D03*
X341237Y159666D03*
Y168666D03*
X381895Y157921D03*
Y166921D03*
X461230Y166236D03*
Y157236D03*
X420006Y159386D03*
Y168386D03*
G54D22*
X235115Y170363D03*
Y156863D03*
X250843Y169997D03*
Y156497D03*
X110000Y403250D03*
Y416750D03*
X125000Y403250D03*
Y416750D03*
G54D23*
X383363Y197110D03*
Y231610D03*
G54D28*
X171468Y396331D03*
X159657D03*
X245752Y397040D03*
X257563D03*
X244816Y408360D03*
X256627D03*
X245149Y421000D03*
X256960D03*
X298013Y305525D03*
X286202D03*
X325622Y303799D03*
X313811D03*
X318343Y180052D03*
X330154D03*
X354568Y305305D03*
X342757D03*
X359338Y179791D03*
X371149D03*
X381871Y305305D03*
X370060D03*
X436428Y181357D03*
X424617D03*
X398814Y180454D03*
X410625D03*
X407774Y304780D03*
X395962D03*
G54D30*
X195389Y386958D03*
X208967Y388003D03*
X234017Y192027D03*
X249380Y191661D03*
X251529Y371030D03*
G54D31*
X195389Y399163D03*
X208967Y400207D03*
X234017Y179822D03*
X249380Y179456D03*
X251529Y383235D03*
G54D32*
X207130Y236012D03*
X200043D03*
X236718Y339468D03*
X229631D03*
X237240Y354090D03*
X230153D03*
X323325Y199115D03*
X330411D03*
X323408Y207587D03*
X330494D03*
X323462Y286474D03*
X330549D03*
X323795Y277991D03*
X330882D03*
G54D33*
X218106Y321924D03*
Y314838D03*
X218367Y296821D03*
Y303907D03*
X402316Y224965D03*
Y232051D03*
X402474Y203172D03*
Y196085D03*
G54D34*
X240486Y369632D03*
Y374632D03*
Y379632D03*
Y384632D03*
X219226D03*
Y379632D03*
Y374632D03*
Y369632D03*
G54D35*
X236645Y322149D03*
Y303646D03*
G54D36*
X295311Y164887D03*
Y176698D03*
X486449Y117425D03*
Y105614D03*
G54D37*
X294742Y205744D03*
Y197870D03*
X301336Y185780D03*
Y193654D03*
X305798Y135102D03*
Y142976D03*
X337379Y142324D03*
Y150198D03*
X349355Y135617D03*
Y143491D03*
X360812Y205002D03*
Y212876D03*
X377920Y141111D03*
Y148985D03*
X389811Y135324D03*
Y143198D03*
X497677Y116762D03*
Y108888D03*
X456286Y140851D03*
Y148725D03*
X427628Y136203D03*
Y144077D03*
X417690Y141763D03*
Y149637D03*
G54D39*
X310477Y219441D03*
X313627D03*
X316776D03*
X319926D03*
X323076D03*
X326225D03*
X329375D03*
X332524D03*
X335674D03*
X338824D03*
X341973D03*
Y265504D03*
X338824D03*
X335674D03*
X332524D03*
X329375D03*
X326225D03*
X323076D03*
X319926D03*
X316776D03*
X313627D03*
X310477D03*
G54D40*
X349257Y226725D03*
Y229874D03*
Y233024D03*
Y236174D03*
Y239323D03*
Y242473D03*
Y245622D03*
Y248772D03*
Y251922D03*
Y255071D03*
Y258221D03*
X303194D03*
Y255071D03*
Y251922D03*
Y248772D03*
Y245622D03*
Y242473D03*
Y239323D03*
Y236174D03*
Y233024D03*
Y229874D03*
Y226725D03*
G54D41*
X476949Y186590D03*
X493091D03*
G54D42*
X273799Y163892D03*
X265925D03*
X269862Y156018D03*
X273799Y163892D03*
G54D43*
X215398Y356983D03*
Y349109D03*
X223272Y353046D03*
X215398Y356983D03*
G54D96*
X318337Y142526D03*
X328337D03*
Y168511D03*
X318337D03*
X359668Y142526D03*
X369668D03*
Y168511D03*
X359668D03*
X399537Y142526D03*
X409537D03*
Y168511D03*
X399537D03*
X435814Y143409D03*
X445814D03*
Y169393D03*
X435814D03*
X0Y0D02*
M02*
